<svg width="100" height="100" viewBox="0 0 100 100" fill="none" xmlns="http://www.w3.org/2000/svg">
<g clip-path="url(#clip0_829_25565)">
<rect width="100" height="100" rx="50" fill="url(#paint0_linear_829_25565)"/>
<g clip-path="url(#clip1_829_25565)">
<path d="M75.254 107.172C76.5909 106.471 76.3791 104.027 74.623 103.797C69.8754 103.17 68.2737 99.1082 68.2737 99.1082L66.7779 99.7867C66.7779 99.7867 67.0912 106.615 70.4887 109.342C74.9628 112.821 76.913 108.515 75.254 107.176V107.172Z" fill="#8DD0FF"/>
<path d="M73.6037 111.325C72.633 111.325 71.4461 110.912 70.0783 109.851C66.4867 106.967 66.1293 100.104 66.116 99.8128C66.1028 99.5475 66.2572 99.2996 66.4999 99.1909L67.9957 98.5124C68.1633 98.4385 68.3531 98.4341 68.5207 98.4994C68.6884 98.5689 68.8252 98.6994 68.887 98.869C68.9487 99.0169 70.418 102.583 74.7068 103.149C75.7614 103.288 76.5335 104.04 76.7321 105.114C76.8821 105.928 76.6615 106.715 76.1761 107.263C76.688 108.146 76.5909 109.381 75.854 110.281C75.3599 110.89 74.5921 111.321 73.5993 111.321L73.6037 111.325ZM67.475 100.191C67.6118 101.696 68.256 106.706 70.9078 108.837C72.5801 110.138 74.0847 110.381 74.826 109.472C75.2893 108.907 75.2893 108.054 74.8304 107.68C74.6583 107.541 74.5701 107.328 74.5921 107.111C74.6142 106.893 74.7465 106.702 74.9407 106.597C75.3907 106.363 75.5099 105.784 75.4305 105.349C75.3863 105.106 75.2098 104.532 74.5303 104.445C70.5637 103.918 68.6443 101.213 67.956 99.9694L67.4662 100.191H67.475Z" fill="#3E3A39"/>
<path d="M34.2105 73.9572C34.2105 73.9572 12.643 107.998 52.7732 107.985C81.9916 108.663 76.2379 85.6999 71.455 74.7575L34.2061 73.9616L34.2105 73.9572Z" fill="#B6E1FF"/>
<path d="M74.548 84.2211L75.1702 87.3003C75.4614 88.7399 75.6423 90.2056 75.629 91.6712C75.5584 100.652 69.5753 108.368 53.0026 107.985C32.2867 107.998 27.5037 98.869 28.5362 89.7837C28.6642 88.6486 28.9113 87.5265 29.2157 86.4262L30.0629 83.3513" fill="#B6E1FF"/>
<path d="M54.1807 108.65C53.788 108.65 53.3909 108.646 52.9849 108.637H52.9408C42.6468 108.637 35.3709 106.384 31.338 101.935C28.4788 98.7864 27.3184 94.6721 27.8832 89.7097C28.0023 88.6529 28.2317 87.5221 28.5803 86.2522L29.4231 83.1773C29.5201 82.8294 29.882 82.625 30.2349 82.7163C30.5879 82.812 30.7953 83.1686 30.7026 83.5166L29.8555 86.5914C29.5246 87.7961 29.3084 88.8617 29.1936 89.8533C28.673 94.4329 29.7231 98.2036 32.322 101.065C36.0945 105.223 43.0395 107.332 52.9585 107.332H53.0026C61.0463 107.528 67.0117 105.81 70.7357 102.253C73.4714 99.6388 74.9363 95.9768 74.9716 91.6669C74.9804 90.3534 74.8348 88.966 74.5259 87.4264L73.9038 84.3473C73.8332 83.995 74.0671 83.6514 74.4244 83.5818C74.7818 83.5079 75.1304 83.7384 75.201 84.095L75.8232 87.1742C76.1541 88.8008 76.3085 90.2751 76.2953 91.6799C76.26 96.3509 74.6539 100.33 71.6579 103.192C67.8633 106.819 61.9861 108.65 54.1851 108.655L54.1807 108.65Z" fill="#3E3A39"/>
<path d="M56.8766 81.7595C54.9749 81.7595 53.2541 82.525 52.0187 83.7601C50.7788 82.525 49.0624 81.7595 47.1607 81.7595C43.3881 81.7595 40.326 84.7735 40.326 88.4963C40.326 88.7181 40.3392 88.9356 40.3569 89.1487C40.3833 89.4227 40.4186 89.688 40.4848 89.9489C41.3849 93.3543 46.8254 97.6556 49.9007 99.8606C51.1671 100.77 52.8791 100.783 54.1586 99.8867C57.2252 97.7382 62.5994 93.537 63.5481 89.9489C63.6187 89.688 63.6496 89.4183 63.6761 89.1487C63.6981 88.9356 63.7069 88.7181 63.7069 88.4963C63.7069 84.7778 60.6492 81.7595 56.8722 81.7595H56.8766Z" fill="white"/>
<path d="M71.3005 74.3008C73.895 73.8702 76.1452 73.0048 78.0646 72.2785C92.9077 66.6681 89.7838 55.6865 87.004 50.1501C85.8347 47.8189 84.7714 45.4356 83.9374 42.9696C81.6077 36.0849 75.3422 22.3808 57.2428 19.7974C55.8529 19.5974 51.3171 19.4234 49.9228 19.5278L50.3552 16.0746C50.4037 15.5266 50.1169 14.9786 49.6007 14.7611C49.5918 14.7611 49.583 14.7524 49.5742 14.7524C48.9476 14.5002 48.2284 14.7437 47.8093 15.27L46.2782 17.1879L44.3588 15.5396C44.0455 15.27 43.6352 15.1047 43.2248 15.1569C43.1587 15.1656 43.0881 15.1786 43.0219 15.196C42.2321 15.4048 41.8041 16.2616 42.0159 17.0444L42.9557 20.0497C42.9557 20.0497 37.4579 20.8804 36.1166 21.2848C19.16 26.369 15.5992 40.2166 14.302 47.5623C13.7814 50.5067 12.9033 53.3728 11.8355 56.1693C7.0746 68.6295 17.4127 74.5444 31.6513 76.5319C31.6513 76.5319 44.853 78.7021 71.3005 74.3052V74.3008Z" fill="#B6E1FF"/>
<path d="M31.6513 77.1799C31.6204 77.1799 31.5895 77.1799 31.5587 77.1755C21.3529 75.749 14.4432 72.4741 11.5708 67.7031C9.60289 64.4282 9.48376 60.4705 11.2134 55.9387C12.3871 52.8639 13.1813 50.0891 13.649 47.4492C14.5756 42.1998 17.3907 26.2211 35.9225 20.6585C36.271 20.5541 36.6417 20.7455 36.7476 21.0934C36.8535 21.437 36.6549 21.8023 36.3063 21.9067C18.5599 27.2344 15.8463 42.6173 14.955 47.671C14.4741 50.3936 13.6578 53.2466 12.4533 56.3954C10.8692 60.5401 10.9575 64.1194 12.7092 67.0377C15.3654 71.4564 21.9486 74.5139 31.7396 75.8795C32.1014 75.9317 32.3529 76.2622 32.3043 76.6189C32.2558 76.945 31.9734 77.1799 31.6513 77.1799Z" fill="#3E3A39"/>
<path d="M71.3005 74.953C71.0005 74.953 70.7313 74.7529 70.6563 74.4572C70.5681 74.1049 70.7887 73.7526 71.1417 73.67C73.692 73.0567 75.9423 72.387 77.8264 71.6737C83.0638 69.6949 86.4481 66.8592 87.8777 63.2494C89.6867 58.6828 88.0806 53.764 86.4084 50.4412C85.0847 47.8057 84.0698 45.4267 83.3065 43.1738C78.8898 30.1134 69.8445 22.2545 57.1458 20.4409C55.7647 20.2452 51.273 20.0799 49.9713 20.1756C49.7772 20.193 49.5786 20.1191 49.4418 19.9755C49.3051 19.832 49.2389 19.6407 49.2654 19.4449L49.6978 15.9917C49.7198 15.7264 49.5742 15.4568 49.3404 15.3568C49.0006 15.2219 48.5814 15.3568 48.3299 15.6655L46.7989 17.5835C46.6885 17.7227 46.5209 17.814 46.34 17.8271C46.1547 17.8445 45.9782 17.7879 45.8414 17.6705L43.922 16.0222C43.7279 15.8569 43.4984 15.7743 43.3087 15.796C43.269 15.8004 43.2293 15.8091 43.1896 15.8178C42.7792 15.9265 42.5321 16.4092 42.6557 16.8703L43.5867 19.8494C43.644 20.0321 43.6176 20.2278 43.5161 20.3887C43.4146 20.5496 43.2469 20.6583 43.0572 20.6888C43.0395 20.6888 41.2393 20.9628 39.47 21.2672C39.1082 21.3325 38.7684 21.0933 38.7022 20.7366C38.636 20.38 38.8787 20.0451 39.2405 19.9799C40.3127 19.7929 41.3982 19.6233 42.0953 19.5102L41.3805 17.2269C41.0628 16.0396 41.7247 14.8523 42.8498 14.5565C42.9469 14.5304 43.0395 14.513 43.1366 14.5C43.7058 14.4304 44.3103 14.6217 44.7912 15.0349L46.1855 16.2353L47.2886 14.8566C47.9064 14.0825 48.9477 13.7867 49.8257 14.139C49.839 14.139 49.8743 14.1564 49.8831 14.1651C50.6288 14.4782 51.0921 15.2698 51.0126 16.1265L50.6729 18.8404C52.5481 18.8187 56.0824 18.9665 57.3355 19.1448C70.5637 21.0324 79.9796 29.2001 84.564 42.7563C85.3053 44.9483 86.2981 47.2707 87.5953 49.8541C89.3823 53.4117 91.0943 58.7089 89.1087 63.7148C87.5379 67.6812 83.8977 70.7648 78.2985 72.8828C76.3615 73.6134 74.0583 74.305 71.455 74.9269C71.402 74.9399 71.3491 74.9443 71.2961 74.9443L71.3005 74.953Z" fill="#3E3A39"/>
<path d="M73.9702 57.7488C77.722 57.4695 80.6095 55.2334 80.4195 52.7544C80.2295 50.2755 77.034 48.4923 73.2822 48.7717C69.5304 49.0511 66.6429 51.2871 66.8329 53.7661C67.0229 56.2451 70.2184 58.0282 73.9702 57.7488Z" fill="#FFDFEE"/>
<path d="M25.902 61.3293C29.6538 61.05 32.5413 58.8139 32.3513 56.335C32.1613 53.856 28.9658 52.0728 25.214 52.3522C21.4622 52.6316 18.5747 54.8676 18.7647 57.3466C18.9547 59.8256 22.1502 61.6087 25.902 61.3293Z" fill="#FFDFEE"/>
<path d="M59.9608 51.52C61.6398 51.52 63.0009 50.1784 63.0009 48.5235C63.0009 46.8685 61.6398 45.5269 59.9608 45.5269C58.2818 45.5269 56.9207 46.8685 56.9207 48.5235C56.9207 50.1784 58.2818 51.52 59.9608 51.52Z" fill="#3E3A39"/>
<path d="M38.5036 52.0985C39.6465 52.0985 40.573 51.1852 40.573 50.0587C40.573 48.9322 39.6465 48.019 38.5036 48.019C37.3608 48.019 36.4343 48.9322 36.4343 50.0587C36.4343 51.1852 37.3608 52.0985 38.5036 52.0985Z" fill="#3E3A39"/>
<path d="M48.4623 49.5585L44.2441 53.451C43.4896 54.1468 44.0455 55.395 45.078 55.3168L54.4101 54.6209C55.4603 54.5426 55.8044 53.1857 54.9131 52.629L49.7992 49.4324C49.3756 49.1671 48.8285 49.2193 48.4623 49.5542V49.5585Z" fill="#FFE574"/>
<path d="M44.9898 55.9692C44.2927 55.9692 43.6705 55.5734 43.3881 54.9341C43.0837 54.2512 43.2425 53.4814 43.7941 52.9726L48.0123 49.0801C48.5991 48.5408 49.4771 48.4582 50.1566 48.8801L55.2705 52.0767C55.9192 52.4855 56.2192 53.2205 56.0339 53.9598C55.8486 54.6992 55.2308 55.2124 54.4587 55.2689L45.1266 55.9648C45.0781 55.9648 45.0339 55.9692 44.9898 55.9692ZM48.9168 50.0326L44.6986 53.9251C44.4956 54.1121 44.5618 54.3252 44.5971 54.4122C44.6324 54.4948 44.7471 54.6905 45.0295 54.6644L54.3616 53.9685C54.644 53.9468 54.7278 53.7337 54.7499 53.6467C54.7719 53.5554 54.7984 53.3292 54.5602 53.1814L49.4463 49.9847C49.2786 49.8804 49.0624 49.8978 48.9168 50.0326Z" fill="#3E3A39"/>
<path d="M62.0876 56.4954L64.0114 62.1319L66.7294 60.9707L64.8012 54.5601L62.0876 56.4954Z" fill="#595757"/>
<path d="M64.0114 62.7843C63.9188 62.7843 63.8261 62.7669 63.7423 62.7277C63.5746 62.6538 63.4422 62.5146 63.3849 62.3407L61.4611 56.6998C61.3684 56.4302 61.4655 56.1301 61.6993 55.9648L64.4129 54.0295C64.5894 53.9034 64.81 53.8729 65.013 53.9381C65.216 54.0077 65.3748 54.1686 65.4366 54.3687L67.3648 60.7793C67.4574 61.0968 67.2986 61.4317 66.9941 61.5622L64.2762 62.7234C64.1923 62.7582 64.1041 62.7756 64.0114 62.7756V62.7843ZM62.873 56.739L64.4085 61.249L65.9264 60.601L64.4306 55.6256L62.8686 56.739H62.873Z" fill="#3E3A39"/>
<g opacity="0.2">
<path d="M64.0732 41.4039L56.4354 53.2858C57.6135 54.2687 59.1181 54.8819 60.7639 54.9515L67.4001 44.4353C66.6544 43.1001 65.4807 42.0389 64.0732 41.4039Z" fill="white"/>
</g>
<g opacity="0.5">
<path d="M68.2605 48.5496L64.788 53.9555C66.7029 52.8248 68.0399 50.8503 68.2605 48.5496Z" fill="white"/>
</g>
<g opacity="0.2">
<path d="M53.8763 47.9145C53.8851 48.9887 54.141 50.002 54.5822 50.911L60.9889 40.7601C57.0267 40.8123 53.8454 44.0046 53.8763 47.9145Z" fill="white"/>
</g>
<g opacity="0.4">
<path d="M61.0331 40.7603C61.0331 40.7603 61.0066 40.7603 60.9934 40.7603L54.5867 50.9111C55.0279 51.8288 55.6633 52.6334 56.4398 53.2814L64.0776 41.3996C63.151 40.9821 62.1229 40.7472 61.0375 40.7559L61.0331 40.7603Z" fill="white"/>
</g>
<g opacity="0.4">
<path d="M68.2914 47.8102C68.2825 46.5881 67.9604 45.4356 67.4001 44.4353L60.7639 54.9515C60.8875 54.9559 61.011 54.9689 61.139 54.9689C62.4759 54.9602 63.7202 54.5862 64.788 53.9556L68.2605 48.5496C68.2825 48.306 68.2958 48.0625 68.2958 47.8146L68.2914 47.8102Z" fill="white"/>
</g>
<path d="M61.011 38.0551C55.5132 38.0942 51.0921 42.5173 51.1318 47.9363C51.1715 53.3553 55.6588 57.7132 61.1566 57.674C66.65 57.6349 71.0755 53.2118 71.0358 47.7928C70.9961 42.3781 66.5088 38.0159 61.011 38.0551ZM61.139 54.9689C57.159 54.9993 53.9072 51.8418 53.8763 47.9146C53.8454 43.9873 57.0487 40.7863 61.0331 40.7559C65.0174 40.7254 68.2649 43.8829 68.2958 47.8102C68.3267 51.7331 65.1233 54.9384 61.139 54.9689Z" fill="#898989"/>
<path d="M61.0816 58.3264C58.2753 58.3264 55.6324 57.2609 53.6336 55.3168C51.6127 53.3553 50.492 50.7372 50.4699 47.9407C50.4479 45.1485 51.5333 42.5129 53.5233 40.521C55.5132 38.5291 58.1695 37.4245 61.0066 37.4027C61.0331 37.4027 61.0595 37.4027 61.086 37.4027C66.9015 37.4027 71.6535 42.0432 71.6977 47.7884C71.7418 53.5554 67.0162 58.2829 61.161 58.3264C61.1345 58.3264 61.1081 58.3264 61.0816 58.3264ZM61.0154 38.7075C58.5357 38.7248 56.2104 39.6947 54.4675 41.4344C52.7246 43.1784 51.776 45.4834 51.7936 47.9276C51.8113 50.3718 52.7952 52.6638 54.5602 54.3817C56.3119 56.0822 58.6239 57.0173 61.0772 57.0173C61.0992 57.0173 61.1257 57.0173 61.1478 57.0173C66.2705 56.9782 70.4049 52.8421 70.3696 47.7928C70.3343 42.7695 66.1734 38.7031 61.0816 38.7031C61.0595 38.7031 61.0375 38.7031 61.011 38.7031L61.0154 38.7075ZM61.0816 55.6212C59.0034 55.6212 57.0443 54.8297 55.5574 53.3901C54.0616 51.9375 53.2276 49.9935 53.21 47.9233C53.1791 43.6481 56.6825 40.1427 61.0242 40.1079H61.0816C63.1598 40.1079 65.1189 40.8994 66.6058 42.339C68.1016 43.7916 68.9355 45.7357 68.9532 47.8058C68.9708 49.876 68.1634 51.8331 66.6897 53.3075C65.2159 54.7819 63.2436 55.6038 61.1434 55.6212H61.086H61.0816ZM61.086 41.4126H61.0375C57.4282 41.4387 54.5116 44.3526 54.5381 47.9146C54.5513 49.6368 55.2441 51.2547 56.4884 52.4638C57.7238 53.6641 59.352 54.3208 61.0816 54.3208H61.1301C62.8774 54.3078 64.5188 53.625 65.7454 52.3985C66.9721 51.1721 67.6427 49.5455 67.6295 47.8232C67.6163 46.101 66.9235 44.4831 65.6792 43.274C64.4438 42.0737 62.8156 41.417 61.086 41.417V41.4126Z" fill="#3E3A39"/>
<path d="M73.9303 63.1018C70.471 55.9909 58.849 60.3357 60.8698 67.9641C60.8875 68.038 60.9095 68.112 60.9316 68.1859C62.5686 73.9398 66.5308 81.4421 70.6696 84.0037C72.9508 85.4172 76.4762 84.3212 77.2528 81.3029C78.5942 76.0187 75.1481 66.3723 74.5525 64.6022C74.4113 64.1847 74.2039 63.6628 73.9303 63.1018Z" fill="#B6E1FF"/>
<path d="M72.8802 85.265C71.9668 85.265 71.0755 85.0258 70.3122 84.5517C66.041 81.9074 61.9641 74.2356 60.2918 68.3599C60.2697 68.2816 60.2477 68.2033 60.2256 68.125C59.0652 63.7541 61.9905 60.5184 65.1939 59.3572C68.3266 58.2264 72.5845 58.8266 74.5215 62.8147C74.8436 63.4758 75.051 64.0368 75.1702 64.3891L75.2628 64.6631C77.8838 72.3263 78.7662 77.9758 77.8838 81.4508C77.4778 83.0252 76.3659 84.2777 74.8304 84.8822C74.195 85.1345 73.5244 85.2563 72.8713 85.2563L72.8802 85.265ZM68.1281 60.1444C67.2809 60.1444 66.4337 60.3009 65.6528 60.5836C62.9039 61.5752 60.5521 64.1934 61.5096 67.7945L61.5669 68.0032C63.173 73.6441 67.0294 80.9724 71.0182 83.4427C71.9712 84.0342 73.2155 84.1211 74.3495 83.6732C75.4879 83.2252 76.3085 82.2989 76.6086 81.1333C77.1734 78.9152 77.1778 74.3269 74.0141 65.0806L73.9171 64.8023C73.8112 64.4848 73.6214 63.9759 73.3302 63.3758C72.2051 61.062 70.171 60.14 68.1281 60.14V60.1444Z" fill="#3E3A39"/>
<path d="M31.7131 75.3967C34.8767 74.5139 38.9846 73.6875 41.5614 70.3996C41.5614 70.3996 38.989 67.838 41.0672 66.3679C43.1498 64.8936 44.575 67.6466 44.575 67.6466C44.575 67.6466 49.0535 64.8675 52.1377 64.9371C53.6071 64.9719 54.1983 66.8507 52.9893 67.6814C52.5702 67.9684 52.0318 68.2555 51.3524 68.4947C51.3524 68.4947 57.5826 75.0184 49.4374 80.5983C42.9689 85.0301 35.115 84.4125 32.1631 83.9732C31.2012 83.8297 30.3011 83.4079 29.6304 82.712C29.6128 82.6903 29.5907 82.6729 29.5731 82.6511C27.3007 80.2373 28.4921 76.2927 31.7086 75.3924L31.7131 75.3967Z" fill="#B6E1FF"/>
<path d="M32.0705 84.6213C30.9365 84.4517 29.8996 83.9341 29.1627 83.173L29.0921 83.0991C27.8832 81.8161 27.4508 80.0329 27.9361 78.3324C28.4303 76.5928 29.7761 75.2619 31.5366 74.7705C31.8498 74.6835 32.1675 74.5965 32.4985 74.5095C35.3268 73.7484 38.5125 72.8873 40.701 70.417C40.2245 69.8255 39.5141 68.7426 39.6111 67.6205C39.6729 66.9159 40.0435 66.3027 40.6922 65.8417C41.5746 65.2198 42.36 65.2328 42.863 65.3546C43.7631 65.572 44.4206 66.2549 44.8 66.7681C46.137 66.007 49.5521 64.2325 52.1642 64.2934C53.1261 64.3195 53.9336 64.924 54.216 65.8417C54.4939 66.7507 54.1674 67.6857 53.382 68.225C53.0908 68.4251 52.7731 68.6077 52.4334 68.7687C53.2364 69.8559 54.5513 72.0871 54.2689 74.7444C54.013 77.1494 52.5216 79.3023 49.8301 81.1463C43.9132 85.1997 36.9152 85.1649 33.253 84.7778C32.8117 84.73 32.4146 84.6778 32.0793 84.63L32.0705 84.6213ZM52.1245 65.5938C49.2741 65.5286 44.9721 68.1772 44.928 68.2033C44.7736 68.299 44.5838 68.3294 44.4029 68.2816C44.2264 68.2337 44.072 68.1119 43.9882 67.951C43.8249 67.6379 43.2425 66.7898 42.5409 66.6245C42.1968 66.5419 41.8438 66.6332 41.4599 66.9072C41.1246 67.1464 40.9569 67.4074 40.926 67.7292C40.851 68.5643 41.7026 69.6167 42.0335 69.9473C42.2674 70.1778 42.2894 70.5475 42.0865 70.8041C39.6288 73.9441 35.8651 74.9575 32.8426 75.7708C32.5205 75.8578 32.2028 75.9447 31.894 76.0274C30.5835 76.3927 29.5775 77.3886 29.2113 78.6847C28.8539 79.9459 29.1716 81.2637 30.0673 82.2162L30.1158 82.2684C30.6585 82.8294 31.4219 83.2078 32.269 83.3339C35.2385 83.7819 42.8233 84.3473 49.0668 80.0721C51.423 78.4585 52.7246 76.6232 52.9408 74.6183C53.2761 71.5217 50.8979 68.9774 50.8758 68.9513C50.7214 68.7904 50.664 68.5643 50.7126 68.3511C50.7655 68.138 50.9199 67.9641 51.1317 67.8901C51.6921 67.6901 52.1907 67.4422 52.6143 67.1551C53.082 66.8333 52.9805 66.3592 52.9364 66.2201C52.8525 65.9461 52.6187 65.6503 52.2039 65.6068C52.1775 65.6068 52.151 65.6025 52.1201 65.6025L52.1245 65.5938Z" fill="#3E3A39"/>
<path d="M37.8595 49.763C38.2177 49.763 38.5081 49.4767 38.5081 49.1236C38.5081 48.7705 38.2177 48.4843 37.8595 48.4843C37.5013 48.4843 37.2109 48.7705 37.2109 49.1236C37.2109 49.4767 37.5013 49.763 37.8595 49.763Z" fill="white"/>
<path d="M58.8004 48.2408C59.2902 48.2408 59.6873 47.8494 59.6873 47.3666C59.6873 46.8838 59.2902 46.4924 58.8004 46.4924C58.3106 46.4924 57.9135 46.8838 57.9135 47.3666C57.9135 47.8494 58.3106 48.2408 58.8004 48.2408Z" fill="white"/>
</g>
</g>
<defs>
<linearGradient id="paint0_linear_829_25565" x1="50" y1="0" x2="50" y2="100" gradientUnits="userSpaceOnUse">
<stop stop-color="#2B72DE"/>
<stop offset="1" stop-color="#0E59CC"/>
</linearGradient>
<clipPath id="clip0_829_25565">
<rect width="100" height="100" rx="50" fill="white"/>
</clipPath>
<clipPath id="clip1_829_25565">
<rect width="80" height="101" fill="white" transform="translate(10 14)"/>
</clipPath>
</defs>
</svg>
