<svg width="185" height="43" viewBox="0 0 185 43" fill="none" xmlns="http://www.w3.org/2000/svg">
<path d="M156.081 2.14939C153.506 3.80597 152.532 6.6072 152.548 9.73332C152.568 13.7013 155.099 20.6466 158.132 27.2825C158.132 27.2825 169.611 26.0634 174.476 24.5914C179.342 23.1179 182.014 20.0978 182.014 16.0823C182.014 16.0392 182.014 15.9962 182.013 15.9542C181.955 13.8176 181.135 11.6798 179.575 9.59772C177.801 7.22762 175.165 5.10524 171.946 3.4699C167.86 1.43755 164.475 0.701101 161.782 0.701101C159.291 0.701101 157.393 1.33158 156.081 2.14939Z" fill="url(#paint0_radial_836_9375)"/>
<path d="M147.885 29.9627C146.83 29.9297 146.14 29.8967 146.14 29.9012C146.14 29.904 146.14 29.904 146.146 29.9073C145.752 29.9104 145.251 29.975 145.095 30.2563C145.061 30.3186 145.033 30.4067 145.033 30.5451C145.033 30.8644 145.197 31.4266 145.843 32.3993C146.838 33.8412 148.823 36.1193 152.633 38.3714C156.892 40.8179 159.795 41.2554 161.13 41.2974C162.385 41.2918 162.706 41.0049 162.796 40.8413C162.941 40.5785 163.004 40.2878 162.003 39.0374C159.52 35.8202 157.735 32.8193 156.041 29.8464C153.627 30.0961 150.013 30.0292 147.885 29.9627Z" fill="url(#paint1_radial_836_9375)"/>
<path d="M143.076 7.32003C140.841 7.81267 139.047 10.0978 138.551 14.0341C138.469 14.7226 138.428 15.4152 138.427 16.1084C138.427 18.7819 139.07 21.19 140.398 23.559C141.829 26.025 143.39 27.1806 145.854 27.5949C148.316 28.0084 152.941 27.7999 154.879 27.6192C151.928 21.8504 149.463 14.9881 149.078 13.8046C147.535 9.0521 145.651 7.26214 143.696 7.26214C143.49 7.26214 143.283 7.28172 143.076 7.32003Z" fill="url(#paint2_radial_836_9375)"/>
<path d="M174.149 27.8947C167.085 28.9167 161.588 29.7076 159.193 29.8617C160.515 32.406 161.834 34.6455 163.211 36.6278C164.82 38.7278 166.389 40.6685 170.885 40.7811C174.359 40.7775 177.312 39.7718 180.166 37.6301C183.412 35.0864 184.835 32.1426 183.886 29.9539C183.117 28.3004 181.04 27.5808 178.043 27.5808C176.877 27.5808 175.572 27.6898 174.149 27.8947Z" fill="url(#paint3_radial_836_9375)"/>
<path d="M16.3684 17.2386H19.4568V15.6762H16.3687V11.2822H13.5985V25.6129H16.3687L16.3684 17.2386ZM6.33105 15.5216C6.90226 15.5216 7.39014 15.8093 7.78269 16.38C8.18083 16.9498 8.38213 17.6448 8.38213 18.4434C8.38213 19.2438 8.18083 19.9378 7.78269 20.509C7.39014 21.0824 6.90198 21.3721 6.33133 21.3721C5.77578 21.3721 5.28957 21.0824 4.88752 20.5079C4.48406 19.9355 4.27968 19.2402 4.27968 18.4431C4.27968 17.6485 4.48406 16.9534 4.88752 16.3797C5.28957 15.8093 5.77578 15.5214 6.33133 15.5214M9.70656 21.5787C10.639 20.7117 11.1107 19.6557 11.1107 18.4431C11.1107 17.6999 10.9178 17.0049 10.5389 16.3786C10.1886 15.8076 9.72374 15.3154 9.17366 14.9331H11.8312V13.3724H7.71671V11.0649H4.94511V13.3724H0.830078V14.9331H3.47138C2.92818 15.3179 2.46946 15.8098 2.12347 16.3786C1.74323 17.006 1.55031 17.701 1.55031 18.4431C1.55031 19.6526 2.02561 20.7069 2.96308 21.5787C3.90167 22.4502 5.03486 22.89 6.33133 22.89C7.64066 22.89 8.77496 22.4502 9.70656 21.5787ZM17.0268 29.074H6.94056V24.3028H4.1698V28.6009C4.1698 29.2365 4.36943 29.7408 4.7631 30.1018C5.14893 30.4541 5.65136 30.6344 6.25444 30.6344H17.0271L17.0268 29.074ZM37.321 20.2669V18.7087H34.3914C34.3914 18.7087 35.0949 17.5333 35.0949 15.4663V11.2819H22.0352V12.8443H32.3255V15.7802C32.3255 17.5688 31.966 18.7087 31.966 18.7087H19.7305V20.2669H27.1411V23.6259H21.7668V25.1866H32.2436V30.6283H35.0138V23.6262H29.9096V20.2671L37.321 20.2669ZM49.5783 24.9632H52.1134C52.6186 23.8207 53.2323 21.1305 53.2323 18.8507V11.6881H39.6766V13.2471H50.461V18.8177C50.461 21.14 50.1993 23.3256 49.5783 24.9632Z" fill="#231F20"/>
<path d="M38.2578 27.9026H55.2274V26.3403H46.3777V18.1759H43.6084V26.3403H38.2578V27.9026ZM88.2323 11.2753V15.1228H84.2593V16.689H88.2323V22.1503H91.0017V11.2753H90.9539H88.2323ZM87.0175 28.8966C86.5495 29.4899 86.0071 29.7781 85.3567 29.7781C84.7173 29.7781 84.1587 29.482 83.6979 28.8966C83.2321 28.308 82.9967 27.6146 82.9967 26.8332C82.9967 26.0545 83.2321 25.3522 83.6979 24.748C84.1598 24.1499 84.7184 23.8477 85.3567 23.8477C85.997 23.8477 86.5554 24.1499 87.0175 24.748C87.4816 25.3511 87.7162 26.0534 87.7162 26.8332C87.7162 27.616 87.4822 28.3094 87.0175 28.8966ZM88.9912 23.6305C87.9972 22.7497 86.7754 22.3052 85.3567 22.3052C83.9375 22.3052 82.7154 22.7497 81.7243 23.6305C80.7317 24.5036 80.2274 25.5817 80.2274 26.8332C80.2274 28.0852 80.7317 29.1644 81.7243 30.0412C82.7205 30.918 83.9412 31.3615 85.3567 31.3615C86.7729 31.3615 87.9961 30.918 88.9909 30.0423C89.9834 29.1655 90.4867 28.0863 90.4867 26.8332C90.4867 25.5806 89.9834 24.5025 88.9909 23.6305M98.0821 16.7466H105.521V20.8536H98.0824L98.0821 16.7466ZM93.3137 26.34V27.9029H110.287V26.34H103.186V22.4145H108.289V11.6857H105.521V15.1787H98.0824V11.6857H95.3116V20.3783C95.3116 21.0171 95.4992 21.5218 95.8714 21.8777C96.2424 22.235 96.7607 22.414 97.4141 22.414H100.414V26.3394L93.3137 26.34ZM120.961 24.1209H125.385V26.0288H128.156V11.2747H125.385V22.6832H120.961V24.1209ZM116.174 13.4279C116.551 12.9665 117.013 12.7328 117.548 12.7328C118.084 12.7328 118.547 12.9665 118.921 13.4268C119.309 13.8984 119.495 14.478 119.495 15.1988C119.495 15.9073 119.303 16.5017 118.923 16.965C118.541 17.4277 118.079 17.6603 117.548 17.6603C117.018 17.6603 116.555 17.4277 116.174 16.965C115.793 16.5031 115.6 15.9084 115.6 15.1988C115.6 14.478 115.787 13.8973 116.174 13.4279M120.883 12.3408C119.977 11.5647 118.857 11.171 117.548 11.171C116.255 11.171 115.137 11.5647 114.225 12.3408C113.314 13.1237 112.851 14.086 112.851 15.1988C112.851 16.3113 113.314 17.2647 114.225 18.0361C115.133 18.8092 116.249 19.1998 117.548 19.1998C118.86 19.1998 119.983 18.8092 120.883 18.0361C121.788 17.2647 122.248 16.3099 122.248 15.1988C122.248 14.086 121.788 13.1248 120.883 12.3408Z" fill="#231F20"/>
<path d="M111.698 21.4695H115.919V24.3113H118.685V21.4695H123.937V19.9617H111.698L111.698 21.4695ZM117.824 29.0744V25.3041H115.053V28.5966C115.053 29.2368 115.253 29.7412 115.644 30.0985C116.034 30.4545 116.537 30.6348 117.139 30.6348H128.753V29.0744H117.824ZM81.8683 13.257C81.8683 15.4023 82.3483 16.9572 83.2042 18.0761C84.1565 19.3974 85.4689 20.0592 86.6392 20.4104L85.5796 21.6965L85.56 21.6937C83.4413 21.441 80.8416 19.0918 80.4412 17.8147C80.0386 19.0918 77.4384 21.441 75.3199 21.694L75.3004 21.6965L74.2418 20.4104C75.413 20.0592 76.7249 19.3974 77.678 18.0758C78.5336 16.9571 79.0131 15.4023 79.0131 13.257H75.3308V11.6958H85.5511V13.257H81.866H81.8683ZM64.6133 17.7202C63.2058 17.7202 62.0653 16.4771 62.0653 14.9424C62.0653 13.408 63.2061 12.1644 64.613 12.1644C66.0185 12.1644 67.1595 13.408 67.1595 14.9424C67.1595 16.4774 66.0185 17.7202 64.613 17.7202M66.0669 20.7987H63.1574V19.0918C63.6357 19.1949 64.1237 19.2465 64.613 19.2456C65.1255 19.2456 65.6092 19.1914 66.0669 19.0918V20.7987ZM68.8393 20.7987V17.5505C69.0137 17.3654 69.1776 17.1711 69.314 16.9628C69.7083 16.3544 69.9084 15.6752 69.9084 14.9413C69.9084 13.7438 69.3932 12.7135 68.3754 11.8828C67.3675 11.0491 66.1012 10.6266 64.613 10.6266C63.1261 10.6266 61.859 11.0491 60.8463 11.8828C59.8317 12.716 59.3169 13.7449 59.3169 14.941C59.3169 15.6791 59.5177 16.3597 59.9133 16.9686C60.0498 17.1831 60.2128 17.3785 60.3878 17.563V20.7987H55.7169V22.3625H73.5104V20.7987H68.8393ZM64.6133 29.7804C63.3755 29.7804 62.3723 28.6145 62.3723 27.1718C62.3723 25.7324 63.3755 24.5643 64.613 24.5643C65.8488 24.5643 66.8508 25.7324 66.8508 27.1721C66.8508 28.6148 65.8488 29.7801 64.613 29.7801M68.1836 24.2319H68.1825C67.2056 23.4417 66.0059 23.0428 64.6133 23.0428C63.2349 23.0428 62.0374 23.4417 61.0541 24.2319C60.0654 25.0276 59.5644 26.0238 59.5644 27.1899C59.5644 28.3461 60.0654 29.3378 61.0538 30.1374C62.0354 30.937 63.2329 31.3413 64.613 31.3413C66.0079 31.3413 67.2081 30.9368 68.1839 30.1374C69.1653 29.3366 69.663 28.3449 69.663 27.1899C69.663 26.0238 69.165 25.0287 68.1836 24.2319ZM8.07977 36.457H7.13223L5.6873 38.2324C5.52681 38.4315 5.33501 38.6678 5.21479 38.8249C5.2187 38.6208 5.22709 38.1306 5.22709 38.1306V36.457H4.42578V41.2996H5.22709V39.8982C5.24666 39.8747 5.99066 38.9943 6.0709 38.9009C6.13381 39.0147 7.43922 41.2993 7.43922 41.2993H8.37054C8.37054 41.2993 6.65049 38.2853 6.61862 38.2327C6.65888 38.1824 8.07921 36.457 8.07921 36.457M10.2662 40.6134C9.72936 40.6134 9.40811 40.1815 9.40811 39.4545C9.40811 38.7701 9.73048 38.3283 10.2323 38.3283C10.7739 38.3283 11.1097 38.7676 11.1097 39.4746C11.1097 40.1359 10.7552 40.6134 10.2662 40.6134ZM10.2597 37.569C9.26132 37.569 8.59366 38.3356 8.59366 39.4749C8.59366 40.5925 9.27027 41.3734 10.2388 41.3734C11.2475 41.3734 11.9247 40.6017 11.9247 39.4545C11.9247 38.3451 11.2403 37.569 10.2597 37.569ZM14.2948 37.569C14.1487 37.5693 14.0041 37.5994 13.8701 37.6575C13.736 37.7156 13.6152 37.8005 13.515 37.907V37.6439H12.707V41.2996H13.515V39.2172C13.515 38.8215 13.6302 38.3498 14.1791 38.3498C14.3834 38.3498 14.5397 38.3856 14.7019 38.4715L14.755 38.4994L14.9678 37.7434L14.9368 37.7272C14.7724 37.6182 14.5733 37.569 14.2948 37.569ZM16.8422 38.2945C17.4335 38.2945 17.6063 38.7195 17.6435 39.0966H16.0677C16.1398 38.5794 16.4116 38.2945 16.8422 38.2945ZM16.8889 37.569C15.8795 37.569 15.2505 38.2995 15.2505 39.4746C15.2505 40.5925 15.9151 41.3731 16.8693 41.3731C17.3952 41.3731 17.8031 41.2199 18.1526 40.8922L18.1876 40.8592L17.7033 40.3478L17.6687 40.3724C17.403 40.5667 17.1771 40.6487 16.9104 40.6487C16.4477 40.6487 16.1326 40.3187 16.0535 39.766H18.4392L18.447 39.6922L18.4649 39.4008C18.4649 38.2886 17.8459 37.569 16.8889 37.569ZM20.5037 39.6231C20.8308 39.6231 21.0805 39.6698 21.2841 39.7646V40.2226C21.1225 40.4364 20.8071 40.6487 20.4553 40.6487C20.036 40.6487 19.805 40.4543 19.805 40.1057C19.805 39.8085 20.0726 39.6231 20.5037 39.6231ZM20.6687 37.5687C20.1676 37.5687 19.7648 37.6718 19.3993 37.8952L19.361 37.9176L19.6803 38.5299L19.7248 38.5067C19.9979 38.3557 20.282 38.2886 20.6483 38.2886C21.0654 38.2886 21.2841 38.4796 21.2841 38.8433V39.0413C21.0816 38.9664 20.8286 38.9255 20.5241 38.9255C19.59 38.9255 19.0319 39.374 19.0319 40.1255C19.0319 41.0476 19.7348 41.3731 20.336 41.3731C20.6745 41.3731 21.012 41.2361 21.2841 40.9998V41.2996H22.0781V38.8098C22.0781 38.0219 21.5653 37.5687 20.6687 37.5687ZM25.7969 39.1081H27.1879V38.3205H25.7969V37.2438H28.1894V36.4567H24.9769V41.2993H28.2926V40.513H25.7969V39.1081ZM32.8558 37.569C32.2986 37.569 32.0019 37.7655 31.7453 38.0652C31.5345 37.7362 31.209 37.569 30.7463 37.569C30.415 37.569 30.1273 37.6953 29.9313 37.907V37.6439H29.1241V41.2996H29.9313V39.1691C29.9313 38.5993 30.1494 38.3085 30.5822 38.3085C31.0443 38.3085 31.2325 38.5783 31.2325 39.2381V41.2996H32.0391V39.1691C32.0391 38.5993 32.2578 38.3085 32.69 38.3085C33.1525 38.3085 33.3389 38.5783 33.3389 39.2381V41.2996H34.1481V39.211C34.1481 38.1225 33.713 37.569 32.8558 37.569ZM35.8695 38.7334C36.0882 38.467 36.3759 38.3085 36.6426 38.3085C37.1604 38.3085 37.4126 38.7139 37.4126 39.5493C37.4126 40.2701 37.1635 40.6347 36.6714 40.6347C36.3532 40.6347 36.0348 40.4099 35.8695 40.1966V38.7334ZM36.7751 37.5692C36.4575 37.5692 36.1698 37.6895 35.8754 37.9316V37.6439H35.0755V42.6388L35.8754 42.2311V41.0253C36.0697 41.1997 36.3801 41.3728 36.7402 41.3728C37.4224 41.3728 38.2192 40.89 38.2192 39.5295C38.2192 38.2842 37.693 37.5692 36.7751 37.5692ZM39.0485 36.6443V41.2996H39.8565V36.2314L39.7866 36.266L39.0485 36.6443ZM42.3457 40.6134C41.8089 40.6134 41.4882 40.1815 41.4882 39.4545C41.4882 38.7701 41.8125 38.3283 42.311 38.3283C42.854 38.3283 43.1906 38.7676 43.1906 39.4746C43.1906 40.1359 42.8358 40.6134 42.3457 40.6134ZM42.3398 37.569C41.3425 37.569 40.6743 38.3356 40.6743 39.4749C40.6743 40.5925 41.349 41.3734 42.32 41.3734C43.3265 41.3734 44.004 40.6017 44.004 39.4545C44.004 38.3451 43.3195 37.569 42.3398 37.569ZM46.9844 37.6439L46.3576 39.4322C46.2695 39.6762 46.1568 40.0445 46.0825 40.2916C45.9992 39.9982 45.9068 39.7074 45.8057 39.4196L45.1998 37.6439H44.3157C44.3157 37.6439 45.6558 41.1511 45.6673 41.1835C45.6561 41.2162 45.1254 42.5541 45.1254 42.5541H45.9812L47.8417 37.6439H47.7732H46.9844ZM52.2106 37.569C51.653 37.569 51.3581 37.7655 51.1011 38.0652C50.8884 37.7362 50.5643 37.569 50.1008 37.569C49.7694 37.569 49.4829 37.6953 49.2857 37.907V37.6439H48.4766V41.2996H49.2857V39.1691C49.2857 38.5993 49.5058 38.3085 49.9361 38.3085C50.3985 38.3085 50.5861 38.5783 50.5861 39.2381V41.2996H51.3936V39.1691C51.3936 38.5993 51.6133 38.3085 52.045 38.3085C52.5064 38.3085 52.6929 38.5783 52.6929 39.2381V41.2996H53.5026V39.211C53.5026 38.1225 53.0675 37.569 52.2103 37.569M55.8461 38.2945C56.4394 38.2945 56.6124 38.7195 56.6496 39.0966H55.0727C55.1449 38.5794 55.4169 38.2945 55.8461 38.2945ZM55.8936 37.569C54.8835 37.569 54.2566 38.2995 54.2566 39.4746C54.2566 40.5925 54.9212 41.3731 55.8735 41.3731C56.3997 41.3731 56.8079 41.2199 57.1579 40.8922L57.192 40.8592L56.7092 40.3478L56.6748 40.3724C56.4075 40.5667 56.1816 40.6487 55.9157 40.6487C55.4535 40.6487 55.1365 40.3187 55.0599 39.766H57.4445L57.4529 39.6922L57.4697 39.4008C57.4697 38.2886 56.8512 37.569 55.8933 37.569M59.9306 37.569C59.5873 37.569 59.2672 37.7037 59.0675 37.9117V37.6439H58.2584V41.2996H59.0675V39.1691C59.0675 38.6127 59.3133 38.3085 59.7651 38.3085C60.2477 38.3085 60.4641 38.5956 60.4641 39.2381V41.2996H61.2721V39.211C61.2721 38.1365 60.8086 37.569 59.9306 37.569ZM63.5061 40.6417C63.2838 40.6417 63.1812 40.583 63.1812 40.2623V38.3767H64.0801V37.6439H63.1812V36.23L63.1093 36.266L62.3871 36.6441V37.6439H61.8688V38.3767H62.3871V40.3814C62.3871 41.0208 62.6939 41.3734 63.2502 41.3734C63.5181 41.3734 63.7745 41.3133 63.971 41.2042L63.9928 41.193L64.0921 40.4577L64.0071 40.5055C63.8891 40.5737 63.6875 40.6417 63.5061 40.6417ZM66.9546 36.457V41.2996H67.7782V36.457H67.7279H66.9546ZM70.5417 37.569C70.1978 37.569 69.8783 37.7037 69.6789 37.9117V37.6439H68.8709V41.2996H69.6789V39.1691C69.6789 38.6127 69.9263 38.3085 70.3765 38.3085C70.8593 38.3085 71.0746 38.5956 71.0746 39.2381V41.2996H71.8826V39.211C71.8826 38.1365 71.4199 37.569 70.5417 37.569ZM73.9167 36.28C73.2999 36.28 72.9487 36.6253 72.9487 37.2223V37.6436H72.4796V38.3898H72.9487V41.2993H73.7573V38.3898H74.4272V37.6436H73.7573V37.2835C73.7573 37.0587 73.8255 36.9863 74.0408 36.9863C74.1624 36.9863 74.2818 37.0047 74.4423 37.0514L74.5035 37.0688V36.3611L74.468 36.3516C74.3087 36.3069 74.1018 36.28 73.9167 36.28ZM76.5574 40.6134C76.0206 40.6134 75.698 40.1815 75.698 39.4545C75.698 38.7701 76.0223 38.3283 76.5222 38.3283C77.0632 38.3283 77.4001 38.7676 77.4001 39.4746C77.4001 40.1359 77.0453 40.6134 76.5574 40.6134ZM76.5502 37.569C75.5531 37.569 74.8838 38.3356 74.8838 39.4749C74.8838 40.5925 75.5604 41.3734 76.5281 41.3734C77.5374 41.3734 78.214 40.6017 78.214 39.4545C78.214 38.3451 77.5298 37.569 76.5502 37.569ZM80.5863 37.569C80.2844 37.569 79.9992 37.699 79.8043 37.907V37.6439H78.9983V41.2996H79.8043V39.2172C79.8043 38.8215 79.9206 38.3498 80.4698 38.3498C80.6739 38.3498 80.8299 38.3856 80.9915 38.4715L81.0468 38.4994L81.2571 37.7434L81.2291 37.7272C81.0616 37.6182 80.864 37.569 80.5863 37.569ZM85.6198 37.569C85.0612 37.569 84.7662 37.7655 84.5079 38.0652C84.2982 37.7362 83.9716 37.569 83.5098 37.569C83.1782 37.569 82.891 37.6953 82.6945 37.907V37.6439H81.8859V41.2996H82.6945V39.1691C82.6945 38.5993 82.912 38.3085 83.3442 38.3085C83.8056 38.3085 83.9951 38.5783 83.9951 39.2381V41.2996H84.8029V39.1691C84.8029 38.5993 85.0215 38.3085 85.4526 38.3085C85.9159 38.3085 86.1035 38.5783 86.1035 39.2381V41.2996H86.9096V39.211C86.9096 38.1225 86.4757 37.569 85.6198 37.569ZM89.1371 39.6231C89.4651 39.6231 89.7131 39.6698 89.9194 39.7646V40.2226C89.755 40.4364 89.4393 40.6487 89.0879 40.6487C88.6679 40.6487 88.4373 40.4543 88.4373 40.1057C88.4373 39.8085 88.7063 39.6231 89.1371 39.6231ZM89.3021 37.5687C88.7991 37.5687 88.3962 37.6718 88.0322 37.8952L87.995 37.9176L88.3154 38.5299L88.3587 38.5067C88.6313 38.3557 88.9159 38.2886 89.2811 38.2886C89.6982 38.2886 89.9194 38.4796 89.9194 38.8433V39.0413C89.7153 38.9664 89.4625 38.9255 89.157 38.9255C88.2231 38.9255 87.6634 39.374 87.6634 40.1255C87.6634 41.0476 88.3682 41.3731 88.9699 41.3731C89.3068 41.3731 89.6443 41.2361 89.9194 40.9998V41.2996H90.7115V38.8098C90.7115 38.0219 90.1984 37.5687 89.3021 37.5687ZM92.9801 40.6417C92.7589 40.6417 92.6558 40.583 92.6558 40.2623V38.3767H93.5524V37.6439H92.6558V36.23L92.5845 36.266L91.86 36.6441V37.6439H91.3428V38.3767H91.86V40.3814C91.86 41.0208 92.1668 41.3734 92.7234 41.3734C92.9927 41.3734 93.2468 41.3133 93.4456 41.2042L93.466 41.193L93.5644 40.4549L93.4811 40.5055C93.3643 40.5737 93.1616 40.6417 92.9801 40.6417ZM94.8657 36.28C94.5833 36.28 94.3551 36.5062 94.3551 36.7825C94.3551 37.0551 94.5835 37.2762 94.8657 37.2762C95.1444 37.2762 95.3717 37.0551 95.3717 36.7825C95.3717 36.5062 95.1444 36.28 94.8657 36.28ZM94.4597 37.6439V41.2996H95.2686V37.6439H95.2207H94.4597ZM97.7569 40.6134C97.2187 40.6134 96.8963 40.1815 96.8963 39.4545C96.8963 38.7701 97.2207 38.3283 97.7228 38.3283C98.2627 38.3283 98.5985 38.7676 98.5985 39.4746C98.5985 40.1359 98.2434 40.6134 97.7569 40.6134ZM97.7485 37.569C96.7537 37.569 96.083 38.3356 96.083 39.4749C96.083 40.5925 96.7596 41.3734 97.7276 41.3734C98.7369 41.3734 99.4146 40.6017 99.4146 39.4545C99.4146 38.3451 98.7285 37.569 97.7485 37.569ZM101.868 37.569C101.526 37.569 101.205 37.7037 101.004 37.9117V37.6439H100.196V41.2996H101.004V39.1691C101.004 38.6127 101.252 38.3085 101.704 38.3085C102.186 38.3085 102.402 38.5956 102.402 39.2381V41.2996H103.21V39.211C103.21 38.1365 102.746 37.569 101.868 37.569ZM107.862 38.4116C106.981 38.1539 106.838 37.9987 106.838 37.7188C106.838 37.3777 107.123 37.1753 107.599 37.1753C108.05 37.1753 108.389 37.3114 108.692 37.6156L108.726 37.65L109.305 37.0727L109.272 37.0386C108.798 36.5915 108.285 36.3818 107.656 36.3818C106.686 36.3818 106.009 36.9466 106.009 37.7512C106.009 38.6046 106.466 38.8761 107.557 39.1939C108.368 39.4324 108.615 39.6055 108.615 39.9357C108.615 40.3691 108.302 40.5816 107.662 40.5816C107.226 40.5816 106.756 40.3713 106.437 40.0327L106.406 39.9975L105.82 40.5572L105.849 40.5913C106.283 41.0876 106.923 41.3728 107.606 41.3728C108.792 41.3728 109.444 40.8461 109.444 39.8879C109.444 38.9608 108.727 38.6717 107.862 38.4116ZM111.678 38.2945C112.27 38.2945 112.444 38.7195 112.481 39.0966H110.904C110.976 38.5794 111.247 38.2945 111.678 38.2945ZM111.726 37.569C110.715 37.569 110.086 38.2995 110.086 39.4746C110.086 40.5925 110.752 41.3731 111.705 41.3731C112.233 41.3731 112.641 41.2199 112.989 40.8922L113.024 40.8592L112.541 40.3478L112.507 40.3724C112.241 40.5667 112.014 40.6487 111.746 40.6487C111.284 40.6487 110.97 40.3187 110.892 39.766H113.278L113.287 39.6849L113.302 39.4008C113.302 38.2886 112.684 37.569 111.726 37.569ZM115.68 37.569C115.378 37.569 115.093 37.699 114.899 37.907V37.6439H114.091V41.2996H114.899V39.2172C114.899 38.8215 115.014 38.3498 115.563 38.3498C115.767 38.3498 115.923 38.3856 116.085 38.4715L116.139 38.4994L116.352 37.7434L116.32 37.7272C116.155 37.6182 115.958 37.569 115.68 37.569ZM119.233 37.6439L118.6 39.6103C118.526 39.8401 118.457 40.0719 118.394 40.3053C118.342 40.1183 118.261 39.875 118.172 39.6103L117.513 37.6439H116.662L117.996 41.2996H118.776L120.088 37.6439H120.02H119.233ZM121.169 36.28C120.886 36.28 120.657 36.5062 120.657 36.7825C120.657 37.0551 120.886 37.2762 121.169 37.2762C121.441 37.2762 121.673 37.0503 121.673 36.7825C121.673 36.5062 121.445 36.28 121.169 36.28ZM120.761 37.6439V41.2996H121.569V37.6439H121.521H120.761ZM124.001 38.3286C124.306 38.3286 124.561 38.4539 124.852 38.7488L124.89 38.7852L125.372 38.2196L125.345 38.1896C124.986 37.7725 124.553 37.5687 124.024 37.5687C123.044 37.5687 122.386 38.3381 122.386 39.4816C122.386 40.5774 123.066 41.3731 124.002 41.3731C124.697 41.3731 125.068 41.0278 125.34 40.6892L125.365 40.6582L124.847 40.1521L124.813 40.1876C124.53 40.4778 124.34 40.6137 124.024 40.6137C123.515 40.6137 123.201 40.1734 123.201 39.4632C123.201 38.762 123.507 38.3286 124.002 38.3286M127.465 38.2945C128.059 38.2945 128.23 38.7195 128.268 39.0966H126.691C126.763 38.5794 127.034 38.2945 127.465 38.2945ZM127.513 37.569C126.503 37.569 125.877 38.2995 125.877 39.4746C125.877 40.5925 126.54 41.3731 127.492 41.3731C128.018 41.3731 128.427 41.2199 128.777 40.8922L128.811 40.8592L128.327 40.3478L128.294 40.3724C128.027 40.5667 127.801 40.6487 127.534 40.6487C127.073 40.6487 126.757 40.3187 126.678 39.766H129.064L129.071 39.6885L129.089 39.4008C129.089 38.2886 128.471 37.569 127.513 37.569Z" fill="#231F20"/>
<defs>
<radialGradient id="paint0_radial_836_9375" cx="0" cy="0" r="1" gradientUnits="userSpaceOnUse" gradientTransform="translate(154.344 12.142) scale(29.214 28.5258)">
<stop stop-color="#BFDD1C"/>
<stop offset="1" stop-color="#58BF3D"/>
</radialGradient>
<radialGradient id="paint1_radial_836_9375" cx="0" cy="0" r="1" gradientUnits="userSpaceOnUse" gradientTransform="translate(154.342 11.8633) scale(29.2159 28.5276)">
<stop stop-color="#F7ED20"/>
<stop offset="0.455002" stop-color="#F7ED20"/>
<stop offset="1" stop-color="#F3BD19"/>
</radialGradient>
<radialGradient id="paint2_radial_836_9375" cx="0" cy="0" r="1" gradientUnits="userSpaceOnUse" gradientTransform="translate(154.341 12.141) scale(29.215 28.5267)">
<stop stop-color="#F3B217"/>
<stop offset="1" stop-color="#EA282F"/>
</radialGradient>
<radialGradient id="paint3_radial_836_9375" cx="0" cy="0" r="1" gradientUnits="userSpaceOnUse" gradientTransform="translate(161.438 17.8859) scale(26.5632 25.9373)">
<stop stop-color="#65C7DF"/>
<stop offset="0.994382" stop-color="#35A6CB"/>
<stop offset="1" stop-color="#35A6CB"/>
</radialGradient>
</defs>
</svg>
