<svg width="347" height="46" viewBox="0 0 347 46" fill="none" xmlns="http://www.w3.org/2000/svg">
<path d="M68.6002 25.36V22.08H59.6602V19.61H80.3702V22.08H71.4102V25.36H78.7102V33.21H75.9102V27.81H61.0902V25.36H68.6102H68.6002ZM78.6502 11.09V17.81H75.8502V13.57H61.2802V11.1H78.6502V11.09Z" fill="#58595B"/>
<path d="M83.25 27.3601V24.89H103.96V27.3601H95V33.17H92.2V27.3601H83.26H83.25ZM84.91 11.3H102.28V21.35H84.91V11.3ZM99.51 13.75H87.67V18.9H99.51V13.75Z" fill="#58595B"/>
<path d="M115.77 29.0201V22.56H118.57V29.0201H127.53V31.49H106.82V29.0201H115.76H115.77ZM108.29 14.25V11.8H126.07V14.25H118.29L126.77 23.11L124.78 24.68L117.18 16.73L109.58 24.68L107.59 23.11L116.07 14.25H108.29Z" fill="#58595B"/>
<path d="M130.34 13.7V11.3H143.27V13.7H137.77L143.5 20.69L141.56 22.31L136.91 16.53L132.34 22.69L130.32 21.07L136.05 13.7H130.34ZM148.24 28.37C148.24 29.13 148.08 29.84 147.77 30.5C147.46 31.16 147.04 31.75 146.52 32.25C146 32.76 145.38 33.15 144.66 33.45C143.94 33.74 143.18 33.89 142.37 33.89C141.56 33.89 140.82 33.74 140.1 33.45C139.38 33.16 138.75 32.76 138.23 32.25C137.71 31.74 137.29 31.16 136.98 30.5C136.67 29.83 136.51 29.12 136.51 28.37C136.51 27.62 136.67 26.9 136.98 26.24C137.29 25.58 137.71 24.99 138.23 24.49C138.75 23.98 139.37 23.59 140.1 23.29C140.82 23 141.58 22.85 142.37 22.85C143.16 22.85 143.94 23 144.66 23.29C145.38 23.59 145.99 23.98 146.52 24.49C147.04 25 147.46 25.58 147.77 26.24C148.08 26.91 148.24 27.62 148.24 28.37ZM145.49 28.34C145.49 27.5 145.18 26.77 144.57 26.17C143.96 25.56 143.22 25.26 142.36 25.26C141.5 25.26 140.79 25.56 140.19 26.17C139.58 26.78 139.28 27.5 139.28 28.34C139.28 29.18 139.58 29.93 140.19 30.52C140.8 31.11 141.52 31.42 142.36 31.42C143.2 31.42 143.95 31.12 144.57 30.52C145.18 29.92 145.49 29.19 145.49 28.34ZM147.36 22.58V17.71H143.17V15.29H147.36V10.64H150.16V22.58H147.36Z" fill="#58595B"/>
<path d="M160.761 10.51L167.861 19.45L165.841 21.07L160.761 14.56L155.711 21.25L153.641 19.63L160.761 10.51ZM156.041 22.38H173.741V28.54H158.841V30.43H173.991V32.7H156.041V26.44H170.941V24.57H156.041V22.37V22.38ZM170.941 10.64H173.741V21.32H170.941V10.64Z" fill="#58595B"/>
<path d="M185.18 14.93V12.58H190.46V10.38H193.44V12.58H198.46V14.93H193.01L198.67 20.66L196.8 22.4L191.93 17.35L187.16 22.8L185.24 21.03L190.87 14.92H185.19L185.18 14.93ZM203.16 28.37C203.16 29.13 203 29.84 202.69 30.5C202.38 31.16 201.96 31.75 201.44 32.25C200.92 32.75 200.3 33.15 199.58 33.45C198.86 33.75 198.1 33.89 197.3 33.89C196.5 33.89 195.75 33.74 195.03 33.45C194.31 33.16 193.68 32.76 193.16 32.25C192.64 31.74 192.22 31.16 191.91 30.5C191.6 29.83 191.44 29.12 191.44 28.37C191.44 27.62 191.6 26.9 191.91 26.24C192.22 25.58 192.64 24.99 193.16 24.49C193.68 23.99 194.3 23.59 195.03 23.29C195.75 23 196.51 22.85 197.3 22.85C198.09 22.85 198.87 23 199.58 23.29C200.3 23.59 200.91 23.98 201.44 24.49C201.97 25 202.38 25.58 202.69 26.24C203 26.91 203.16 27.62 203.16 28.37ZM200.41 28.34C200.41 27.5 200.1 26.77 199.49 26.17C198.87 25.56 198.14 25.26 197.28 25.26C196.42 25.26 195.71 25.56 195.11 26.17C194.5 26.78 194.2 27.5 194.2 28.34C194.2 29.18 194.5 29.93 195.11 30.52C195.72 31.12 196.44 31.42 197.28 31.42C198.12 31.42 198.87 31.12 199.49 30.52C200.1 29.92 200.41 29.19 200.41 28.34ZM202.28 23.24V18.11H198.34V15.71H202.28V10.63H205.08V23.23H202.28V23.24Z" fill="#58595B"/>
<path d="M221.891 23.16H209.851V11.14H212.651V20.66H221.891V23.16ZM210.411 32.71V25.19H213.191V30.24H228.871V32.71H210.411ZM225.861 25.06V19.28H219.721V17.11H225.861V15.49H219.721V13.27H225.861V10.64H228.661V25.06H225.861Z" fill="#58595B"/>
<path d="M232.42 13.7V11.3H245.35V13.7H239.85L245.58 20.69L243.64 22.31L238.99 16.53L234.42 22.69L232.4 21.07L238.13 13.7H232.42ZM250.33 28.37C250.33 29.13 250.17 29.84 249.86 30.5C249.55 31.16 249.13 31.75 248.61 32.25C248.09 32.75 247.47 33.15 246.75 33.45C246.03 33.75 245.27 33.89 244.47 33.89C243.67 33.89 242.92 33.74 242.2 33.45C241.48 33.16 240.85 32.76 240.33 32.25C239.81 31.74 239.39 31.16 239.08 30.5C238.77 29.83 238.61 29.12 238.61 28.37C238.61 27.62 238.77 26.9 239.08 26.24C239.39 25.58 239.81 24.99 240.33 24.49C240.85 23.99 241.47 23.59 242.2 23.29C242.92 23 243.68 22.85 244.47 22.85C245.26 22.85 246.04 23 246.75 23.29C247.47 23.59 248.08 23.98 248.61 24.49C249.14 25 249.55 25.58 249.86 26.24C250.17 26.91 250.33 27.62 250.33 28.37ZM247.57 28.34C247.57 27.5 247.26 26.77 246.65 26.17C246.03 25.56 245.3 25.26 244.44 25.26C243.58 25.26 242.87 25.56 242.27 26.17C241.66 26.78 241.36 27.5 241.36 28.34C241.36 29.18 241.66 29.93 242.27 30.52C242.88 31.12 243.6 31.42 244.44 31.42C245.28 31.42 246.03 31.12 246.65 30.52C247.26 29.92 247.57 29.19 247.57 28.34ZM249.44 22.58V17.71H245.25V15.29H249.44V10.64H252.24V22.58H249.44Z" fill="#58595B"/>
<path d="M255.78 14.93V12.58H260.07V10.38H263.05V12.58H267.22V14.93H262.4L267.48 22.1L265.49 23.46L261.53 17.83L257.72 23.64L255.67 22.23L260.69 14.93H255.79H255.78ZM257.7 24.63H276.08V32.96H273.28V27.1H257.7V24.63ZM273.38 10.64H276.08V23.47H273.38V18.32H271.13V23.34H268.5V10.66H271.13V15.74H273.38V10.64Z" fill="#58595B"/>
<path d="M288.61 29.0201V22.56H291.41V29.0201H300.37V31.49H279.66V29.0201H288.6H288.61ZM281.13 14.25V11.8H298.91V14.25H291.13L299.61 23.11L297.62 24.68L290.02 16.73L282.42 24.68L280.43 23.11L288.91 14.25H281.13Z" fill="#58595B"/>
<path d="M303.18 13.7V11.3H316.11V13.7H310.61L316.34 20.69L314.4 22.31L309.75 16.53L305.18 22.69L303.16 21.07L308.89 13.7H303.18ZM321.08 28.37C321.08 29.13 320.92 29.84 320.61 30.5C320.3 31.16 319.88 31.75 319.36 32.25C318.84 32.75 318.22 33.15 317.5 33.45C316.78 33.75 316.02 33.89 315.22 33.89C314.42 33.89 313.67 33.74 312.95 33.45C312.23 33.16 311.6 32.76 311.08 32.25C310.56 31.74 310.14 31.16 309.83 30.5C309.52 29.83 309.36 29.12 309.36 28.37C309.36 27.62 309.52 26.9 309.83 26.24C310.14 25.58 310.56 24.99 311.08 24.49C311.6 23.99 312.22 23.59 312.95 23.29C313.67 23 314.43 22.85 315.22 22.85C316.01 22.85 316.79 23 317.5 23.29C318.22 23.59 318.83 23.98 319.36 24.49C319.89 25 320.3 25.58 320.61 26.24C320.92 26.91 321.08 27.62 321.08 28.37ZM318.33 28.34C318.33 27.5 318.02 26.77 317.41 26.17C316.79 25.56 316.06 25.26 315.2 25.26C314.34 25.26 313.63 25.56 313.03 26.17C312.42 26.78 312.12 27.5 312.12 28.34C312.12 29.18 312.42 29.93 313.03 30.52C313.64 31.12 314.36 31.42 315.2 31.42C316.04 31.42 316.79 31.12 317.41 30.52C318.02 29.92 318.33 29.19 318.33 28.34ZM320.19 22.58V17.71H316V15.29H320.19V10.64H322.99V22.58H320.19Z" fill="#58595B"/>
<path d="M333.6 10.51L340.7 19.45L338.68 21.07L333.6 14.56L328.55 21.25L326.48 19.63L333.6 10.51ZM328.88 22.38H346.58V28.54H331.68V30.43H346.83V32.7H328.88V26.44H343.78V24.57H328.88V22.37V22.38ZM343.78 10.64H346.58V21.32H343.78V10.64Z" fill="#58595B"/>
<path d="M35.01 21.64C31.07 18.96 26.03 20.05 23.38 24.08C21.17 27.44 17.83 27.86 16.53 27.86C12.32 27.86 9.44 24.9 8.58 21.83C8.58 21.83 8.56 21.77 8.56 21.74C8.56 21.71 8.54 21.67 8.53 21.64C8.19 20.36 8.11 19.75 8.11 18.39C8.11 11.06 15.63 2.89 26.47 2.89C37.31 2.89 43.92 11.34 45.56 16.03C45.53 15.95 45.51 15.87 45.48 15.78C42.33 6.6 33.62 0 23.36 0C10.46 0 0 10.46 0 23.37C0 34.91 8.32 44.78 19.86 44.78C29.07 44.78 35.26 39.62 38.09 32.5C39.64 28.61 38.54 24.04 35.01 21.64Z" fill="#003964"/>
<path d="M45.7101 16.49C44.3401 11.91 37.9401 2.89001 26.4801 2.89001C15.6401 2.89001 8.12012 11.06 8.12012 18.39C8.12012 19.75 8.20012 20.36 8.54012 21.64C8.40012 21.08 8.33012 20.52 8.33012 19.97C8.33012 12.33 15.9801 7.04001 23.8401 7.04001C34.4801 7.04001 43.1101 15.67 43.1101 26.31C43.1101 34.65 38.3101 41.87 31.3301 45.34C40.3201 42.09 46.7501 33.47 46.7501 23.36C46.7501 20.97 46.4301 18.86 45.7201 16.48" fill="#ED193A"/>
</svg>
