<?xml version="1.0" encoding="UTF-8"?>
<svg id="Layer_1" xmlns="http://www.w3.org/2000/svg" version="1.1" xmlns:xlink="http://www.w3.org/1999/xlink" viewBox="0 0 81.81 98.84">
  <!-- Generator: Adobe Illustrator 29.2.1, SVG Export Plug-In . SVG Version: 2.1.0 Build 116)  -->
  <defs>
    <style>
      .st0 {
        fill: #898989;
      }

      .st1 {
        fill: #3e3a39;
      }

      .st2 {
        fill: #595757;
      }

      .st3 {
        fill: #8dd0ff;
      }

      .st4 {
        opacity: .4;
      }

      .st5 {
        fill: #fff;
      }

      .st6 {
        fill: none;
      }

      .st7 {
        fill: #b6e1ff;
      }

      .st8 {
        fill: #ffdfee;
      }

      .st9 {
        fill: #ffe574;
      }

      .st10 {
        opacity: .2;
      }

      .st11 {
        clip-path: url(#clippath);
      }

      .st12 {
        opacity: .5;
      }
    </style>
    <clipPath id="clippath">
      <rect class="st6" x="1.22" y=".54" width="80" height="101"/>
    </clipPath>
  </defs>
  <g class="st11">
    <g>
      <path class="st3" d="M66.48,93.71c1.34-.7,1.13-3.14-.63-3.38-4.75-.63-6.35-4.69-6.35-4.69l-1.5.68s.31,6.83,3.71,9.56c4.47,3.48,6.42-.83,4.77-2.17h0Z"/>
      <path class="st1" d="M64.82,97.86c-.97,0-2.16-.41-3.53-1.47-3.59-2.88-3.95-9.75-3.96-10.04-.01-.27.14-.51.38-.62l1.5-.68c.17-.07.36-.08.53-.01.17.07.3.2.37.37.06.15,1.53,3.71,5.82,4.28,1.05.14,1.83.89,2.03,1.96.15.81-.07,1.6-.56,2.15.51.88.41,2.12-.32,3.02-.49.61-1.26,1.04-2.25,1.04h0ZM58.7,86.73c.14,1.5.78,6.51,3.43,8.65,1.67,1.3,3.18,1.54,3.92.64.46-.57.46-1.42,0-1.79-.17-.14-.26-.35-.24-.57.02-.22.15-.41.35-.51.45-.23.57-.81.49-1.25-.04-.24-.22-.82-.9-.9-3.97-.53-5.89-3.23-6.57-4.48l-.49.22h0Z"/>
      <path class="st7" d="M25.43,60.49s-21.57,34.04,18.56,34.03c29.22.68,23.46-22.29,18.68-33.23l-37.25-.8h0Z"/>
      <path class="st7" d="M65.77,70.76l.62,3.08c.29,1.44.47,2.91.46,4.37-.07,8.98-6.05,16.7-22.63,16.31-20.72.01-25.5-9.12-24.47-18.2.13-1.14.38-2.26.68-3.36l.85-3.07"/>
      <path class="st1" d="M45.4,95.19c-.39,0-.79,0-1.2-.01h-.04c-10.29,0-17.57-2.25-21.6-6.7-2.86-3.15-4.02-7.26-3.45-12.23.12-1.06.35-2.19.7-3.46l.84-3.07c.1-.35.46-.55.81-.46.35.1.56.45.47.8l-.85,3.07c-.33,1.2-.55,2.27-.66,3.26-.52,4.58.53,8.35,3.13,11.21,3.77,4.16,10.72,6.27,20.64,6.27h.04c8.04.2,14.01-1.52,17.73-5.08,2.74-2.61,4.2-6.28,4.24-10.59,0-1.31-.14-2.7-.45-4.24l-.62-3.08c-.07-.35.16-.7.52-.77.36-.07.71.16.78.51l.62,3.08c.33,1.63.49,3.1.47,4.51-.04,4.67-1.64,8.65-4.64,11.51-3.79,3.63-9.67,5.46-17.47,5.46h0Z"/>
      <path class="st5" d="M48.1,68.3c-1.9,0-3.62.77-4.86,2-1.24-1.24-2.96-2-4.86-2-3.77,0-6.83,3.01-6.83,6.74,0,.22.01.44.03.65.03.27.06.54.13.8.9,3.41,6.34,7.71,9.42,9.91,1.27.91,2.98.92,4.26.03,3.07-2.15,8.44-6.35,9.39-9.94.07-.26.1-.53.13-.8.02-.21.03-.43.03-.65,0-3.72-3.06-6.74-6.83-6.74h0Z"/>
      <path class="st7" d="M62.52,60.84c2.59-.43,4.84-1.3,6.76-2.02,14.84-5.61,11.72-16.59,8.94-22.13-1.17-2.33-2.23-4.71-3.07-7.18-2.33-6.88-8.6-20.59-26.69-23.17-1.39-.2-5.93-.37-7.32-.27l.43-3.45c.05-.55-.24-1.1-.75-1.31,0,0-.02,0-.03,0-.63-.25-1.35,0-1.76.52l-1.53,1.92-1.92-1.65c-.31-.27-.72-.43-1.13-.38-.07,0-.14.02-.2.04-.79.21-1.22,1.07-1.01,1.85l.94,3.01s-5.5.83-6.84,1.24C10.38,12.91,6.82,26.75,5.52,34.1c-.52,2.94-1.4,5.81-2.47,8.61-4.76,12.46,5.58,18.38,19.82,20.36,0,0,13.2,2.17,39.65-2.23h0Z"/>
      <path class="st1" d="M22.87,63.72s-.06,0-.09,0c-10.21-1.43-17.12-4.7-19.99-9.47-1.97-3.27-2.09-7.23-.36-11.76,1.17-3.07,1.97-5.85,2.44-8.49.93-5.25,3.74-21.23,22.27-26.79.35-.1.72.09.83.43.11.34-.09.71-.44.81C9.78,13.77,7.07,29.15,6.18,34.21c-.48,2.72-1.3,5.58-2.5,8.72-1.58,4.14-1.5,7.72.26,10.64,2.66,4.42,9.24,7.48,19.03,8.84.36.05.61.38.56.74-.05.33-.33.56-.65.56Z"/>
      <path class="st1" d="M62.52,61.49c-.3,0-.57-.2-.64-.5-.09-.35.13-.7.49-.79,2.55-.61,4.8-1.28,6.68-2,5.24-1.98,8.62-4.81,10.05-8.42,1.81-4.57.2-9.49-1.47-12.81-1.32-2.64-2.34-5.01-3.1-7.27-4.42-13.06-13.46-20.92-26.16-22.73-1.38-.2-5.87-.36-7.17-.27-.19.02-.39-.06-.53-.2-.14-.14-.2-.33-.18-.53l.43-3.45c.02-.27-.12-.53-.36-.63-.34-.13-.76,0-1.01.31l-1.53,1.92c-.11.14-.28.23-.46.24-.19.02-.36-.04-.5-.16l-1.92-1.65c-.19-.17-.42-.25-.61-.23-.04,0-.08.01-.12.02-.41.11-.66.59-.53,1.05l.93,2.98c.06.18.03.38-.07.54-.1.16-.27.27-.46.3-.02,0-1.82.27-3.59.58-.36.07-.7-.17-.77-.53-.07-.36.18-.69.54-.76,1.07-.19,2.16-.36,2.85-.47l-.71-2.28c-.32-1.19.34-2.37,1.47-2.67.1-.03.19-.04.29-.06.57-.07,1.17.12,1.65.53l1.39,1.2,1.1-1.38c.62-.77,1.66-1.07,2.54-.72.01,0,.05.02.06.03.75.31,1.21,1.1,1.13,1.96l-.34,2.71c1.88-.02,5.41.13,6.66.3,13.23,1.89,22.64,10.06,27.23,23.61.74,2.19,1.73,4.51,3.03,7.1,1.79,3.56,3.5,8.85,1.51,13.86-1.57,3.97-5.21,7.05-10.81,9.17-1.94.73-4.24,1.42-6.84,2.04-.05.01-.11.02-.16.02h0Z"/>
      <path class="st8" d="M65.19,44.28c3.75-.28,6.64-2.52,6.45-4.99-.19-2.48-3.39-4.26-7.14-3.98-3.75.28-6.64,2.52-6.45,4.99.19,2.48,3.39,4.26,7.14,3.98Z"/>
      <path class="st8" d="M17.12,47.87c3.75-.28,6.64-2.52,6.45-4.99-.19-2.48-3.39-4.26-7.14-3.98-3.75.28-6.64,2.52-6.45,4.99s3.39,4.26,7.14,3.98Z"/>
      <path class="st1" d="M51.18,38.06c1.68,0,3.04-1.34,3.04-3s-1.36-3-3.04-3-3.04,1.34-3.04,3,1.36,3,3.04,3Z"/>
      <path class="st1" d="M29.72,38.63c1.14,0,2.07-.91,2.07-2.04s-.93-2.04-2.07-2.04-2.07.91-2.07,2.04.93,2.04,2.07,2.04Z"/>
      <path class="st9" d="M39.68,36.09l-4.22,3.89c-.75.7-.2,1.94.83,1.87l9.33-.7c1.05-.08,1.39-1.44.5-1.99l-5.11-3.2c-.42-.27-.97-.21-1.34.12h0Z"/>
      <path class="st1" d="M36.21,42.51c-.7,0-1.32-.4-1.6-1.04-.3-.68-.15-1.45.41-1.96l4.22-3.89c.59-.54,1.46-.62,2.14-.2l5.11,3.2c.65.41.95,1.14.76,1.88-.19.74-.8,1.25-1.58,1.31l-9.33.7s-.09,0-.14,0ZM40.14,36.57l-4.22,3.89c-.2.19-.14.4-.1.49.04.08.15.28.43.25l9.33-.7c.28-.02.37-.23.39-.32.02-.09.05-.32-.19-.47l-5.11-3.2c-.17-.1-.38-.09-.53.05Z"/>
      <path class="st2" d="M53.31,43.03l1.92,5.64,2.72-1.16-1.93-6.41-2.71,1.94Z"/>
      <path class="st1" d="M55.23,49.32c-.09,0-.19-.02-.27-.06-.17-.07-.3-.21-.36-.39l-1.92-5.64c-.09-.27,0-.57.24-.73l2.71-1.94c.18-.13.4-.16.6-.09.2.07.36.23.42.43l1.93,6.41c.09.32-.07.65-.37.78l-2.72,1.16c-.08.03-.17.05-.26.05h0ZM54.09,43.28l1.54,4.51,1.52-.65-1.5-4.98-1.56,1.11h0Z"/>
      <g class="st10">
        <path class="st5" d="M55.29,27.94l-7.64,11.88c1.18.98,2.68,1.6,4.33,1.67l6.64-10.52c-.75-1.34-1.92-2.4-3.33-3.03Z"/>
      </g>
      <g class="st12">
        <path class="st5" d="M59.48,35.09l-3.47,5.41c1.91-1.13,3.25-3.11,3.47-5.41Z"/>
      </g>
      <g class="st10">
        <path class="st5" d="M45.1,34.45c0,1.07.26,2.09.71,3l6.41-10.15c-3.96.05-7.14,3.24-7.11,7.15Z"/>
      </g>
      <g class="st4">
        <path class="st5" d="M52.25,27.3h-.04l-6.41,10.15c.44.92,1.08,1.72,1.85,2.37l7.64-11.88c-.93-.42-1.95-.65-3.04-.64h0Z"/>
      </g>
      <g class="st4">
        <path class="st5" d="M59.51,34.35c0-1.22-.33-2.37-.89-3.37l-6.64,10.52c.12,0,.25.02.38.02,1.34,0,2.58-.38,3.65-1.01l3.47-5.41c.02-.24.04-.49.04-.73h0Z"/>
      </g>
      <path class="st0" d="M52.23,24.59c-5.5.04-9.92,4.46-9.88,9.88.04,5.42,4.53,9.78,10.02,9.74,5.49-.04,9.92-4.46,9.88-9.88-.04-5.41-4.53-9.78-10.02-9.74ZM52.36,41.51c-3.98.03-7.23-3.13-7.26-7.05-.03-3.93,3.17-7.13,7.16-7.16,3.98-.03,7.23,3.13,7.26,7.05.03,3.92-3.17,7.13-7.16,7.16Z"/>
      <path class="st1" d="M52.3,44.86c-2.81,0-5.45-1.07-7.45-3.01-2.02-1.96-3.14-4.58-3.16-7.38-.02-2.79,1.06-5.43,3.05-7.42,1.99-1.99,4.65-3.1,7.48-3.12h.08c5.82,0,10.57,4.64,10.61,10.39.04,5.77-4.68,10.49-10.54,10.54h-.08ZM52.24,25.24c-2.48.02-4.81.99-6.55,2.73-1.74,1.74-2.69,4.05-2.67,6.49.02,2.44,1,4.74,2.77,6.45,1.75,1.7,4.06,2.64,6.52,2.64h.07c5.12-.04,9.26-4.18,9.22-9.22-.04-5.02-4.2-9.09-9.29-9.09h-.07,0ZM52.3,42.16c-2.08,0-4.04-.79-5.52-2.23-1.5-1.45-2.33-3.4-2.35-5.47-.03-4.28,3.47-7.78,7.81-7.82h.06c2.08,0,4.04.79,5.52,2.23,1.5,1.45,2.33,3.4,2.35,5.47.02,2.07-.79,4.03-2.26,5.5-1.47,1.47-3.45,2.3-5.55,2.31h-.06ZM52.31,27.95h-.05c-3.61.03-6.53,2.94-6.5,6.5.01,1.72.71,3.34,1.95,4.55,1.24,1.2,2.86,1.86,4.59,1.86h.05c1.75-.01,3.39-.7,4.62-1.92,1.23-1.23,1.9-2.85,1.88-4.58-.01-1.72-.71-3.34-1.95-4.55-1.24-1.2-2.86-1.86-4.59-1.86h0Z"/>
      <path class="st7" d="M65.15,49.64c-3.46-7.11-15.08-2.77-13.06,4.86.02.07.04.15.06.22,1.64,5.75,5.6,13.26,9.74,15.82,2.28,1.41,5.81.32,6.58-2.7,1.34-5.28-2.1-14.93-2.7-16.7-.14-.42-.35-.94-.62-1.5Z"/>
      <path class="st1" d="M64.1,71.8c-.91,0-1.8-.24-2.57-.71-4.27-2.64-8.35-10.32-10.02-16.19-.02-.08-.04-.16-.07-.23-1.16-4.37,1.76-7.61,4.97-8.77,3.13-1.13,7.39-.53,9.33,3.46.32.66.53,1.22.65,1.57l.09.27c2.62,7.66,3.5,13.31,2.62,16.79-.41,1.57-1.52,2.83-3.05,3.43-.64.25-1.31.37-1.96.37h0ZM59.35,46.68c-.85,0-1.69.16-2.48.44-2.75.99-5.1,3.61-4.14,7.21l.06.21c1.61,5.64,5.46,12.97,9.45,15.44.95.59,2.2.68,3.33.23,1.14-.45,1.96-1.37,2.26-2.54.56-2.22.57-6.81-2.59-16.05l-.1-.28c-.11-.32-.3-.83-.59-1.43-1.13-2.31-3.16-3.24-5.2-3.24h0Z"/>
      <path class="st7" d="M22.93,61.93c3.16-.88,7.27-1.71,9.85-5,0,0-2.57-2.56-.49-4.03,2.08-1.47,3.51,1.28,3.51,1.28,0,0,4.48-2.78,7.56-2.71,1.47.03,2.06,1.91.85,2.74-.42.29-.96.57-1.64.81,0,0,6.23,6.52-1.92,12.1-6.47,4.43-14.32,3.81-17.27,3.37-.96-.14-1.86-.57-2.53-1.26-.02-.02-.04-.04-.06-.06-2.27-2.41-1.08-6.36,2.14-7.26h0Z"/>
      <path class="st1" d="M23.29,71.16c-1.13-.17-2.17-.69-2.91-1.45l-.07-.07c-1.21-1.28-1.64-3.07-1.16-4.77.49-1.74,1.84-3.07,3.6-3.56.31-.09.63-.17.96-.26,2.83-.76,6.01-1.62,8.2-4.09-.48-.59-1.19-1.67-1.09-2.8.06-.7.43-1.32,1.08-1.78.88-.62,1.67-.61,2.17-.49.9.22,1.56.9,1.94,1.41,1.34-.76,4.75-2.54,7.36-2.47.96.03,1.77.63,2.05,1.55.28.91-.05,1.84-.83,2.38-.29.2-.61.38-.95.54.8,1.09,2.12,3.32,1.84,5.98-.26,2.4-1.75,4.56-4.44,6.4-5.92,4.05-12.91,4.02-16.58,3.63-.44-.05-.84-.1-1.17-.15h0ZM43.35,52.13c-2.85-.07-7.15,2.58-7.2,2.61-.15.1-.34.13-.53.08-.18-.05-.33-.17-.41-.33-.16-.31-.75-1.16-1.45-1.33-.34-.08-.7,0-1.08.28-.34.24-.5.5-.53.82-.07.84.78,1.89,1.11,2.22.23.23.26.6.05.86-2.46,3.14-6.22,4.15-9.24,4.97-.32.09-.64.17-.95.26-1.31.37-2.32,1.36-2.68,2.66-.36,1.26-.04,2.58.86,3.53l.05.05c.54.56,1.31.94,2.15,1.07,2.97.45,10.55,1.01,16.8-3.26,2.36-1.61,3.66-3.45,3.87-5.45.34-3.1-2.04-5.64-2.06-5.67-.15-.16-.21-.39-.16-.6.05-.21.21-.39.42-.46.56-.2,1.06-.45,1.48-.74.47-.32.37-.8.32-.93-.08-.27-.32-.57-.73-.61-.03,0-.05,0-.08,0h0Z"/>
      <path class="st5" d="M29.08,36.3c.36,0,.65-.29.65-.64s-.29-.64-.65-.64-.65.29-.65.64.29.64.65.64Z"/>
      <path class="st5" d="M50.02,34.78c.49,0,.89-.39.89-.87s-.4-.87-.89-.87-.89.39-.89.87.4.87.89.87Z"/>
    </g>
  </g>
</svg>