<?xml version="1.0" encoding="UTF-8"?>
<svg xmlns="http://www.w3.org/2000/svg" version="1.1" xmlns:xlink="http://www.w3.org/1999/xlink" viewBox="0 0 107.61 49.55">
  <defs>
    <style>
      .cls-1 {
        fill: none;
      }

      .cls-2 {
        fill: url(#linear-gradient);
      }

      .cls-3 {
        clip-path: url(#clippath);
      }

      .cls-4 {
        fill: #414141;
      }
    </style>
    <linearGradient id="linear-gradient" x1=".01" y1="19.92" x2="107.28" y2="42.33" gradientUnits="userSpaceOnUse">
      <stop offset="0" stop-color="#f497a2"/>
      <stop offset=".2" stop-color="#d295b9"/>
      <stop offset=".4" stop-color="#ac92bc"/>
      <stop offset=".6" stop-color="#8c90bf"/>
      <stop offset=".8" stop-color="#8abcdc"/>
      <stop offset="1" stop-color="#91c9cb"/>
    </linearGradient>
    <clipPath id="clippath">
      <polygon class="cls-1" points="70.36 33.09 69.74 41.92 61.98 46.19 57.96 39.22 65.67 31.85 70.36 33.09"/>
    </clipPath>
  </defs>
  <!-- Generator: Adobe Illustrator 28.7.1, SVG Export Plug-In . SVG Version: 1.2.0 Build 142)  -->
  <g>
    <g id="Layer_1">
      <g>
        <polygon class="cls-4" points="83.87 41.8 83.87 33.21 88.42 33.21 88.42 42.42 83.87 41.8"/>
        <polygon class="cls-4" points="18.58 34.83 18.58 39.39 3.24 39.39 3.24 26.07 7.79 26.07 7.79 34.83 18.58 34.83"/>
        <polygon class="cls-4" points="42.48 31.17 48.57 25.54 51.46 28.43 45.83 34.06 42.48 31.17"/>
        <polygon class="cls-4" points="49.81 24.27 42.79 24.27 42.79 19.72 49.89 19.72 49.89 14.58 54.44 14.58 54.44 19.72 60.86 19.72 60.86 24.27 54.51 24.27 49.81 24.27"/>
        <polygon class="cls-4" points="63.36 19.67 70.78 19.67 70.78 14.51 75.33 14.51 75.33 32.55 70.78 32.55 70.78 24.22 63.36 24.22 63.36 19.67"/>
        <path class="cls-4" d="M68.99,34.2c-3.96,0-7.24,3.3-7.24,7.54s3.28,7.39,7.24,7.39,7.24-3.22,7.24-7.39-3.28-7.54-7.24-7.54ZM68.99,44.65c-1.34,0-2.61-1.41-2.61-2.91s1.27-2.83,2.61-2.83c1.42,0,2.69,1.34,2.69,2.83s-1.27,2.91-2.69,2.91Z"/>
        <polygon class="cls-4" points="92.2 26.21 92.2 30.77 78.3 30.77 78.3 16.42 82.86 16.42 82.86 26.21 92.2 26.21"/>
        <polygon class="cls-4" points="94.73 19.1 102.43 19.1 102.43 14.51 106.98 14.51 106.98 35.5 102.43 35.5 102.43 30.79 94.73 30.79 94.73 26.23 102.43 26.23 102.43 23.66 94.73 23.66 94.73 19.1"/>
        <polygon class="cls-4" points="39.27 4.43 39.27 .65 24.57 .65 24.57 15.83 29.62 15.83 29.62 20.39 34.07 20.39 34.07 15.83 39.27 15.83 39.27 12.05 29.14 12.05 29.14 10.16 39.27 10.16 39.27 6.38 29.14 6.38 29.14 4.43 39.27 4.43"/>
        <path class="cls-4" d="M31.89,25.49c-3.88,0-7.09,3.23-7.09,7.39s3.22,7.24,7.09,7.24,7.09-3.16,7.09-7.24-3.22-7.39-7.09-7.39ZM31.89,35.73c-1.39,0-2.56-1.39-2.56-2.85s1.17-2.77,2.56-2.77,2.63,1.31,2.63,2.77-1.24,2.85-2.63,2.85Z"/>
        <path class="cls-4" d="M18.01,8.06c0-4.16-3.22-7.39-7.09-7.39S3.82,3.9,3.82,8.06c0,3.26,2.06,5.93,4.87,6.87v5.46h4.45v-5.46c2.81-.94,4.87-3.61,4.87-6.87ZM10.91,10.91c-1.39,0-2.56-1.39-2.56-2.85s1.17-2.77,2.56-2.77,2.63,1.31,2.63,2.77-1.24,2.85-2.63,2.85Z"/>
        <path class="cls-2" d="M74.94,40.88c-2.66,0-5.22-1.03-7.14-2.87l-19.7-18.3h-1.97s-23.86,0-23.86,0h0s-22.21,0-22.21,0v4.56h8.75s37.2,0,37.2,0l18.44,17.08c2.73,2.62,6.37,4.07,10.15,4.07h32.46s0-4.56,0-4.56h-32.12Z"/>
        <g class="cls-3">
          <path class="cls-4" d="M68.99,34.2c-3.96,0-7.24,3.3-7.24,7.54s3.28,7.39,7.24,7.39,7.24-3.22,7.24-7.39-3.28-7.54-7.24-7.54ZM68.99,44.65c-1.34,0-2.61-1.41-2.61-2.91s1.27-2.83,2.61-2.83c1.42,0,2.69,1.34,2.69,2.83s-1.27,2.91-2.69,2.91Z"/>
        </g>
      </g>
    </g>
  </g>
</svg>