<svg width="20" height="20" viewBox="0 0 20 20" fill="none" xmlns="http://www.w3.org/2000/svg">
<g id="tabler-icon-clipboard-list">
<path id="Vector" d="M5.83341 4.16667V3.46667V4.16667ZM4.16675 5.83333H3.46675H4.16675ZM4.16675 15.8333H3.46675H4.16675ZM14.1667 4.16667V3.46667V4.16667ZM9.16675 2.5V1.8V2.5ZM10.8334 2.5V1.8V2.5ZM10.8334 5.83333V6.53333V5.83333ZM9.16675 5.83333V6.53333V5.83333ZM7.50008 9.3C7.11348 9.3 6.80008 9.6134 6.80008 10C6.80008 10.3866 7.11348 10.7 7.50008 10.7V9.3ZM7.50841 10.7C7.89501 10.7 8.20842 10.3866 8.20842 10C8.20842 9.6134 7.89501 9.3 7.50841 9.3V10.7ZM10.8334 9.3H10.1334V10.7H10.8334V9.3ZM12.5001 10.7H13.2001V9.3H12.5001V10.7ZM7.50008 12.6333C7.11348 12.6333 6.80008 12.9467 6.80008 13.3333C6.80008 13.7199 7.11348 14.0333 7.50008 14.0333V12.6333ZM7.50841 14.0333C7.89501 14.0333 8.20842 13.7199 8.20842 13.3333C8.20842 12.9467 7.89501 12.6333 7.50841 12.6333V14.0333ZM10.8334 12.6333H10.1334V14.0333H10.8334V12.6333ZM12.5001 14.0333H13.2001V12.6333H12.5001V14.0333ZM7.50008 3.46667H5.83341V4.86667H7.50008V3.46667ZM5.83341 3.46667C5.20574 3.46667 4.60376 3.71601 4.15993 4.15985L5.14988 5.1498C5.33116 4.96851 5.57704 4.86667 5.83341 4.86667V3.46667ZM4.15993 4.15985C3.71609 4.60368 3.46675 5.20565 3.46675 5.83333H4.86675C4.86675 5.57696 4.96859 5.33108 5.14988 5.1498L4.15993 4.15985ZM3.46675 5.83333V15.8333H4.86675V5.83333H3.46675ZM3.46675 15.8333C3.46675 16.461 3.71609 17.063 4.15993 17.5068L5.14988 16.5169C4.96859 16.3356 4.86675 16.0897 4.86675 15.8333H3.46675ZM4.15993 17.5068C4.60376 17.9507 5.20574 18.2 5.83341 18.2V16.8C5.57704 16.8 5.33116 16.6982 5.14988 16.5169L4.15993 17.5068ZM5.83341 18.2H14.1667V16.8H5.83341V18.2ZM14.1667 18.2C14.7944 18.2 15.3964 17.9507 15.8402 17.5068L14.8503 16.5169C14.669 16.6982 14.4231 16.8 14.1667 16.8V18.2ZM15.8402 17.5068C16.2841 17.063 16.5334 16.461 16.5334 15.8333H15.1334C15.1334 16.0897 15.0316 16.3356 14.8503 16.5169L15.8402 17.5068ZM16.5334 15.8333V5.83333H15.1334V15.8333H16.5334ZM16.5334 5.83333C16.5334 5.20565 16.2841 4.60368 15.8402 4.15985L14.8503 5.1498C15.0316 5.33108 15.1334 5.57696 15.1334 5.83333H16.5334ZM15.8402 4.15985C15.3964 3.71601 14.7944 3.46667 14.1667 3.46667L14.1667 4.86667C14.4231 4.86667 14.669 4.96851 14.8503 5.1498L15.8402 4.15985ZM14.1667 3.46667H12.5001V4.86667H14.1667V3.46667ZM8.20008 4.16667C8.20008 3.91029 8.30193 3.66442 8.48321 3.48313L7.49326 2.49318C7.04943 2.93702 6.80008 3.53899 6.80008 4.16667H8.20008ZM8.48321 3.48313C8.6645 3.30184 8.91037 3.2 9.16675 3.2L9.16675 1.8C8.53907 1.8 7.9371 2.04934 7.49326 2.49318L8.48321 3.48313ZM9.16675 3.2H10.8334V1.8H9.16675V3.2ZM10.8334 3.2C11.0898 3.2 11.3357 3.30184 11.517 3.48313L12.5069 2.49318C12.0631 2.04934 11.4611 1.8 10.8334 1.8V3.2ZM11.517 3.48313C11.6982 3.66442 11.8001 3.91029 11.8001 4.16667H13.2001C13.2001 3.53899 12.9507 2.93702 12.5069 2.49318L11.517 3.48313ZM11.8001 4.16667C11.8001 4.42304 11.6982 4.66892 11.517 4.8502L12.5069 5.84015C12.9507 5.39632 13.2001 4.79435 13.2001 4.16667H11.8001ZM11.517 4.8502C11.3357 5.03149 11.0898 5.13333 10.8334 5.13333V6.53333C11.4611 6.53333 12.0631 6.28399 12.5069 5.84015L11.517 4.8502ZM10.8334 5.13333H9.16675V6.53333H10.8334V5.13333ZM9.16675 5.13333C8.91037 5.13333 8.6645 5.03149 8.48321 4.8502L7.49326 5.84015C7.9371 6.28399 8.53907 6.53333 9.16675 6.53333L9.16675 5.13333ZM8.48321 4.8502C8.30193 4.66892 8.20008 4.42304 8.20008 4.16667H6.80008C6.80008 4.79435 7.04943 5.39632 7.49326 5.84015L8.48321 4.8502ZM7.50008 10.7H7.50841V9.3H7.50008V10.7ZM10.8334 10.7H12.5001V9.3H10.8334V10.7ZM7.50008 14.0333H7.50841V12.6333H7.50008V14.0333ZM10.8334 14.0333H12.5001V12.6333H10.8334V14.0333Z" fill="black"/>
</g>
</svg>
