<svg xmlns="http://www.w3.org/2000/svg" xmlns:xlink="http://www.w3.org/1999/xlink" width="250" height="77" viewBox="0 0 250 77">
  <defs>
    <clipPath id="clip-path">
      <rect id="사각형_197" data-name="사각형 197" width="250" height="77" transform="translate(309 15)" fill="#fff" stroke="#707070" stroke-width="1"/>
    </clipPath>
    <clipPath id="clip-path-2">
      <rect id="사각형_195" data-name="사각형 195" width="52.352" height="28.078" fill="none"/>
    </clipPath>
    <clipPath id="clip-path-3">
      <rect id="사각형_196" data-name="사각형 196" width="53.355" height="5.638" fill="none"/>
    </clipPath>
  </defs>
  <g id="logo_color" transform="translate(-309 -15)" clip-path="url(#clip-path)">
    <g id="그룹_137945" transform="translate(309 20.802)">
      <g id="그룹_150" data-name="그룹 150">
        <path id="패스_426" data-name="패스 426" d="M6.658,58.738A4.518,4.518,0,0,1,7.3,56.275,6,6,0,0,1,9.03,54.269,10.2,10.2,0,0,1,11.857,52.9a12.266,12.266,0,0,1,3.831-.456,7.9,7.9,0,0,1,2.371.182,2.819,2.819,0,0,0,1.733-1.186H.73V47.793H5.381V42.5h4.2v5.29h2.736a7.652,7.652,0,0,0,.638-1.733,14.171,14.171,0,0,0,.456-2.1,17.808,17.808,0,0,0,.182-2.1,5.909,5.909,0,0,0-.182-1.824H1.915V36.392H17.329a13.093,13.093,0,0,1,.456,2.827v3.1a17.16,17.16,0,0,1-.456,3.01,12.713,12.713,0,0,1-.912,2.463h3.831V35.48h4.1v6.932h4.2L28,46.06H24.352V48.7a11.812,11.812,0,0,1-.456,3.466,3.6,3.6,0,0,1-1.733,2.1,5.4,5.4,0,0,1,1.824,2.007,4.733,4.733,0,0,1,.638,2.463,4.419,4.419,0,0,1-.638,2.371,5.728,5.728,0,0,1-1.733,1.915,10.2,10.2,0,0,1-2.827,1.368,12.266,12.266,0,0,1-3.831.456,15.751,15.751,0,0,1-3.831-.456,8.172,8.172,0,0,1-2.827-1.368,5.235,5.235,0,0,1-1.733-2.007,5.417,5.417,0,0,1-.638-2.371Zm4.56-.091A2.157,2.157,0,0,0,12.5,60.562a6.733,6.733,0,0,0,3.283.73,7.121,7.121,0,0,0,3.375-.73,2.262,2.262,0,0,0,1.277-1.915,2.38,2.38,0,0,0-1.277-1.915,5.955,5.955,0,0,0-3.375-.821,5.635,5.635,0,0,0-3.283.821,2.38,2.38,0,0,0-1.277,1.915Z"/>
        <path id="패스_427" data-name="패스 427" d="M29,55.272V51.623H55.637l-.73,3.648H44.144v9.486h-4.2V55.272H28.913ZM48.887,36.027a14.2,14.2,0,0,1-.912,4.287,14.033,14.033,0,0,1-2.1,3.375l8.391,2.645-1.824,3.648-9.85-3.648a20.348,20.348,0,0,1-5.381,2.28A45.4,45.4,0,0,1,31.1,49.891l-1.186-3.648a35.211,35.211,0,0,0,4.652-.821,21.632,21.632,0,0,0,4.1-1.368,11.382,11.382,0,0,0,3.1-2.007,5.6,5.6,0,0,0,1.642-2.554H31.923V35.845H48.978Z"/>
        <path id="패스_428" data-name="패스 428" d="M69.683,40.131a16.589,16.589,0,0,1,0,3.01,10.545,10.545,0,0,1-.73,2.919l5.2,2.645-2.1,3.375L67.22,49.07a14.513,14.513,0,0,1-3.557,2.919,19.088,19.088,0,0,1-5.472,2.007l-1.642-3.466a19.38,19.38,0,0,0,3.648-.912,16.391,16.391,0,0,0,2.827-1.551,6.591,6.591,0,0,0,1.824-2.1A3.669,3.669,0,0,0,65.4,43.6H58.19V40.131H69.774Zm-9.03-5.837a8.366,8.366,0,0,0,2.1.821,9.74,9.74,0,0,0,2.28.274h3.74l-.73,3.557H64.757a9.617,9.617,0,0,1-2.827-.274,8.037,8.037,0,0,1-2.371-.821l1.094-3.466Zm11.31,8.391h5.472V35.48h4.1V48.34a11.938,11.938,0,0,1-.547,3.74,4.159,4.159,0,0,1-2.007,2.463,6.591,6.591,0,0,1,1.824,2.1,4.964,4.964,0,0,1,.638,2.463,4.733,4.733,0,0,1-.638,2.463,6.311,6.311,0,0,1-1.824,2.007,11.641,11.641,0,0,1-2.827,1.368,12.018,12.018,0,0,1-3.74.456,15.546,15.546,0,0,1-3.74-.456,8.172,8.172,0,0,1-2.827-1.368,6.311,6.311,0,0,1-1.824-2.007,4.518,4.518,0,0,1-.638-2.463,5.059,5.059,0,0,1,.638-2.554,5.484,5.484,0,0,1,1.824-2.007,11.64,11.64,0,0,1,2.827-1.368,11.938,11.938,0,0,1,3.74-.547h.912a3.421,3.421,0,0,1,.912.091,9.836,9.836,0,0,0,1.733-.547,3.252,3.252,0,0,0,1-.912,4.807,4.807,0,0,0,.456-1.368V46.333H71.963V42.685ZM67.585,59.011a2.717,2.717,0,0,0,1.368,2.28,6.5,6.5,0,0,0,3.466.821,6.284,6.284,0,0,0,3.466-.821,2.508,2.508,0,0,0,1.368-2.28,2.377,2.377,0,0,0-1.368-2.189,7.727,7.727,0,0,0-6.932,0A2.474,2.474,0,0,0,67.585,59.011Z" fill="#0057a2"/>
        <path id="패스_429" data-name="패스 429" d="M89.566,48.7c1.094.091,2.189.182,3.283.182s2.189,0,3.283-.091a26.266,26.266,0,0,0,3.01-.456,16.813,16.813,0,0,0,2.554-.821l.821,3.283a14.557,14.557,0,0,1-3.375,1.186,28.911,28.911,0,0,1-4.2.638,41.105,41.105,0,0,1-4.743,0,45.184,45.184,0,0,1-4.925-.547V36.118h4.1V48.8Zm3.283,5.29-.365,4.652v1a.77.77,0,0,0,.182.638.838.838,0,0,0,.547.365c.274,0,.547.091,1,.091H110.27l-.73,3.557H93.488a10.437,10.437,0,0,1-2.554-.182A4.381,4.381,0,0,1,89.2,63.3a2.887,2.887,0,0,1-.912-1.642,8.135,8.135,0,0,1-.091-2.645l.365-4.925h4.378ZM96.862,37.76h8.3V35.571h4.1V56.822h-4.1V46.607h-8.3V43.05h8.3V41.317h-8.3V37.76Z" fill="#0057a2"/>
        <path id="패스_430" data-name="패스 430" d="M114.83,48.34v-12.5h21.616L135.9,39.31H119.3v1h15.961l-.547,3.375H119.3v1.094h17.238l-.547,3.557h-8.482v1.551h11.219L138,53.265H112.277V49.891h11.036V48.34H114.83Zm.821,11.4a4.333,4.333,0,0,1,.547-2.189,4.794,4.794,0,0,1,1.824-1.733,11.553,11.553,0,0,1,3.01-1.094,19.55,19.55,0,0,1,4.378-.456,20.174,20.174,0,0,1,4.378.456,9.5,9.5,0,0,1,3.01,1.094,5.565,5.565,0,0,1,1.824,1.733,4.583,4.583,0,0,1,.547,2.189,4.237,4.237,0,0,1-.547,2.1,5.587,5.587,0,0,1-1.824,1.733,11.552,11.552,0,0,1-3.01,1.094,26.45,26.45,0,0,1-8.756,0,10.432,10.432,0,0,1-3.01-1.094,4.775,4.775,0,0,1-1.824-1.733,4.333,4.333,0,0,1-.547-2.189Zm4.652,0a1.625,1.625,0,0,0,1.277,1.551,13.677,13.677,0,0,0,3.831.456,14.41,14.41,0,0,0,3.922-.456,1.532,1.532,0,0,0,1.277-1.551c0-.73-.456-1.186-1.277-1.459a13.932,13.932,0,0,0-3.922-.456,12.769,12.769,0,0,0-3.831.456A1.51,1.51,0,0,0,120.3,59.741Z"/>
        <path id="패스_431" data-name="패스 431" d="M141.281,46.7a5.741,5.741,0,0,1,.821-3.01h-2.919V40.223h18.424l-.638,3.466h-2.736a6.121,6.121,0,0,1,.365,5.381,4.594,4.594,0,0,1-1.368,1.824,6.369,6.369,0,0,1-2.189,1.186,8.993,8.993,0,0,1-5.655,0,8.4,8.4,0,0,1-2.189-1.186,3.886,3.886,0,0,1-1.368-1.824,5.247,5.247,0,0,1-.456-2.371Zm21.981,6.476V64.757H147.574a7.868,7.868,0,0,1-2.645-.274,3.522,3.522,0,0,1-1.733-.912,3.457,3.457,0,0,1-.912-1.824,7.306,7.306,0,0,1,0-2.827l.547-5.746h4.287l-.182,2.371h12.313V53.174h4.013ZM144.2,34.294a7.193,7.193,0,0,0,2.1.821,10.676,10.676,0,0,0,2.371.365h4.469l-.638,3.375h-4.1a16.567,16.567,0,0,1-2.919-.274,6.509,6.509,0,0,1-2.371-.821l1.186-3.466Zm1.094,12.4a2.668,2.668,0,0,0,.73,1.733,2.617,2.617,0,0,0,2.1.821,2.836,2.836,0,0,0,3.01-2.554,2.625,2.625,0,0,0-.821-1.915,3.328,3.328,0,0,0-2.189-.73,2.918,2.918,0,0,0-2.1.73A2.613,2.613,0,0,0,145.294,46.7Zm2.827,14.228h10.945v-2.1H146.388a3.6,3.6,0,0,0,.182,1.642c.182.274.638.456,1.459.456ZM159.066,35.48h4.1v7.3h4.2l-.547,3.74H163.17v5.2h-4.1V35.571Z"/>
        <path id="패스_432" data-name="패스 432" d="M167.822,50.8V47.246h26.45l-.73,3.557Zm2.463-4.652V42.685h4.287a2.617,2.617,0,0,1-.547-1,8.18,8.18,0,0,1-.182-1.642v-.821h-3.831V35.662h22.072l-.73,3.557H188.07v.821a4.529,4.529,0,0,1-.182,1.642,2.717,2.717,0,0,1-.638,1h4.469l-.73,3.466h-20.7Zm.274,10.4H187.34V55.272H170.467V51.9h21.16v7.935H174.663v.638c0,.182,0,.274.091.365,0,.091.182.182.456.182h17.968l-.638,3.648H175.027c-1.915,0-3.283-.365-4.013-1.094a4.075,4.075,0,0,1-.821-3.466l.456-3.648Zm7.57-16.144a3.119,3.119,0,0,0,.091,1,1.362,1.362,0,0,0,.274.638,1.908,1.908,0,0,0,.547.365,5.814,5.814,0,0,0,.821.182h2.28a2.366,2.366,0,0,0,1.277-.547,2.413,2.413,0,0,0,.365-1.642V39.219h-5.655V40.4Z"/>
        <path id="패스_433" data-name="패스 433" d="M196.005,51.715V42.5h6.932a1.421,1.421,0,0,0,1.094-.274,2.131,2.131,0,0,0,.638-.638,2.663,2.663,0,0,0,.182-.821,1.644,1.644,0,0,0-.182-.912h-8.665V36.483h12.039a12.147,12.147,0,0,1,.638,3.466,8.026,8.026,0,0,1-.456,3.01,4.069,4.069,0,0,1-1.824,2.1,5.835,5.835,0,0,1-3.283.821h-3.01v2.554H209.6l-1,3.375H195.823Zm15.961,1.733v1.094A7.82,7.82,0,0,1,211.51,57l10.033,4.378-2.1,3.648-9.668-5.108a13.79,13.79,0,0,1-4.2,3.192,16.85,16.85,0,0,1-5.837,1.824L198.1,61.383a24.745,24.745,0,0,0,3.74-.821,13.839,13.839,0,0,0,3.1-1.368,7.378,7.378,0,0,0,2.1-2.007,4.713,4.713,0,0,0,.821-2.827v-.912h4.1Zm2.645-11.583h2.28V35.48H220.9V55.545h-4.013V45.513h-2.28v6.476H210.6V35.662h4.013v6.2Z"/>
        <path id="패스_434" data-name="패스 434" d="M238.69,47.063v1.915H250l-.73,3.831h-25.9V48.978H234.4V47.063h-8.665V43.6h4.287v-.182h0v-.274c-.182-.182-.182-.456-.274-.73V39.584h-3.831V36.027h22.072l-.73,3.557H243.98v3.01l-.091.182v.547h0a.474.474,0,0,1-.182.365l-.182.182h4.469l-.73,3.466h-7.935Zm4.469,7.205a10.412,10.412,0,0,1,2.463.182,4.416,4.416,0,0,1,1.642.638,3.229,3.229,0,0,1,.821,1.459,7.441,7.441,0,0,1,.091,2.554l-.456,5.472H229.934a5.146,5.146,0,0,1-3.74-1.277c-.821-.912-1.094-2.189-.912-4.013l.456-4.925h17.421Zm.547,4.834c0-.638,0-1-.274-1.094-.182-.182-.638-.182-1.277-.182H229.843l-.182,1.459a2.521,2.521,0,0,0,.182,1.277,1.521,1.521,0,0,0,1.277.456h12.4V59.194Zm-8.3-15.414h2.645a5.414,5.414,0,0,0,.73-.365c.091-.091.274-.182.365-.365a.909.909,0,0,1,.091-.365c0-.182.091-.456.091-.638V39.493h-5.655V42.5c.091,0,.091.182.182.274a.335.335,0,0,0,.091.274h.091a.318.318,0,0,0,.091.182,2.286,2.286,0,0,0,.638.365h.182l.456.091Z"/>
      </g>
      <g id="그룹_151" data-name="그룹 151">
        <path id="패스_435" data-name="패스 435" d="M13.772,14.137c6.2-1.186,9.759,2.28,11.583,5.29a13.717,13.717,0,0,0,1.459-6.111c0-2.189,0-1.733-.274-2.554C12.678,8.391,8.3,18.88,6.932,25.082a13.914,13.914,0,0,0,6.476,1.642A13.44,13.44,0,0,0,22.893,22.8c-2.736-8.391-9.121-8.574-9.121-8.574h0Z" fill="#ee4023"/>
        <path id="패스_436" data-name="패스 436" d="M22.072,3.192A17.179,17.179,0,0,1,16.326,9.3,17.677,17.677,0,0,0,19.61,1.459,13.639,13.639,0,0,0,2.1,6.111c1.915,1.642,6.293,4.378,13.5,3.648A39.572,39.572,0,0,1,.638,9.212,12.465,12.465,0,0,0,0,13.316a13.332,13.332,0,0,0,3.557,9.03C7.388,9.486,22.528,8.665,25.994,8.665A13.466,13.466,0,0,0,22.072,3.1h0ZM12.951,9.03a2.24,2.24,0,0,1-2.28-2.189,2.282,2.282,0,0,1,4.56,0,2.24,2.24,0,0,1-2.28,2.189h0Z" fill="#ee4023"/>
        <path id="패스_437" data-name="패스 437" d="M96.771,9.121A5.173,5.173,0,0,0,97.866,12.5a5.749,5.749,0,0,0,3.1,1.642l-1.186,1a5.439,5.439,0,0,1-2.919-.912A3.588,3.588,0,0,1,95.494,12.4a3.588,3.588,0,0,1-1.368,1.824,5.279,5.279,0,0,1-2.736.821l-1.186-1a5.08,5.08,0,0,0,3.01-1.551,5.349,5.349,0,0,0,1.094-3.375V6.385H96.68V9.121h.091Zm4.469-3.01h2.371V20.066H101.24V6.111Z" fill="#231f20"/>
        <path id="패스_438" data-name="패스 438" d="M52.353,7.753h-4.1V6.476H58.92V7.753h-4.1a3.216,3.216,0,0,0,1.642,2.736,6.342,6.342,0,0,0,3.466,1.186l-1.277,1.094a5.908,5.908,0,0,1-2.919-.821,3.74,3.74,0,0,1-2.1-1.733,4.132,4.132,0,0,1-2.1,1.733,8.06,8.06,0,0,1-3.1.73l-1.094-1A5.692,5.692,0,0,0,50.8,10.489a3.191,3.191,0,0,0,1.642-2.645h0Zm0,7.388H46.789V13.864h13.5V15.14H54.725v4.834H52.353V15.14h0Z" fill="#231f20"/>
        <path id="패스_439" data-name="패스 439" d="M82.725,12.951a3.608,3.608,0,0,0,1.368-.912H87.1v1.642h2.371V6.111H87.1V7.479H84.276a3.81,3.81,0,0,0-1.368-1,3.7,3.7,0,0,0-1.733-.365,4.458,4.458,0,0,0-2.827,1,3.233,3.233,0,0,0-1.186,2.554,3.233,3.233,0,0,0,1.186,2.554,4.078,4.078,0,0,0,2.827,1.094,2.413,2.413,0,0,0,1.642-.365h-.091Zm2.28-3.74a.822.822,0,0,0-.091-.456h2.1v2.1H84.823a1.3,1.3,0,0,1,.182-.547v-1h0ZM79.9,11.31a2.49,2.49,0,0,1-.456-1.642A3.15,3.15,0,0,1,79.9,8.026a1.42,1.42,0,0,1,2.371,0,2.49,2.49,0,0,1,.456,1.642,3.15,3.15,0,0,1-.456,1.642,1.42,1.42,0,0,1-2.371,0Z" fill="#231f20"/>
        <path id="패스_440" data-name="패스 440" d="M89.383,16.235a1.52,1.52,0,0,0-1.551-1.459H78.986v1.277h8.026v4.013h2.371V16.235h0Z" fill="#231f20"/>
        <path id="패스_441" data-name="패스 441" d="M67.494,7.753v2.919a1.839,1.839,0,0,1-.274,1h2.007a2.576,2.576,0,0,0,.456-1A7.041,7.041,0,0,0,69.865,9.3V7.844a1.6,1.6,0,0,0-1.551-1.551H62.021V7.57h5.472Z" fill="#231f20"/>
        <path id="패스_442" data-name="패스 442" d="M73.331,8.938V6.2H70.96v5.837a9.465,9.465,0,0,1-1.094.274c-.456,0-.912.091-1.551.091H65.761V9.394H63.572V12.4H61.383v1.277h6.841a3.78,3.78,0,0,0,1.459-.182,9.467,9.467,0,0,0,1.186-.365v1.277H73.24v-4.1h2.371V9.03H73.24Z" fill="#231f20"/>
        <path id="패스_443" data-name="패스 443" d="M71.78,15.14a5.422,5.422,0,0,0-6.02,0,2.833,2.833,0,0,0-1.277,2.28,2.833,2.833,0,0,0,1.277,2.28,5.422,5.422,0,0,0,6.02,0,2.833,2.833,0,0,0,1.277-2.28,2.833,2.833,0,0,0-1.277-2.28ZM70.139,18.7a1.984,1.984,0,1,1,.547-1.368,2.011,2.011,0,0,1-.547,1.368Z" fill="#231f20"/>
        <path id="패스_444" data-name="패스 444" d="M38.854,7.661V10.58a1.839,1.839,0,0,1-.274,1h2.007a2.576,2.576,0,0,0,.456-1,7.041,7.041,0,0,0,.182-1.368V7.753A1.6,1.6,0,0,0,39.675,6.2h-6.02V7.479h5.29Z" fill="#231f20"/>
        <path id="패스_445" data-name="패스 445" d="M44.692,8.756V6.02H42.32v5.837a9.465,9.465,0,0,1-1.094.274c-.456,0-.912.091-1.551.091H37.121V9.212H34.933v3.01H32.926V13.5h6.658a3.78,3.78,0,0,0,1.459-.182,9.467,9.467,0,0,0,1.186-.365v1.277H44.6v-4.1h2.371V8.847H44.6Z" fill="#231f20"/>
        <path id="패스_446" data-name="패스 446" d="M43.141,14.958a4.727,4.727,0,0,0-3.01-.912,4.727,4.727,0,0,0-3.01.912,2.833,2.833,0,0,0-1.277,2.28,2.833,2.833,0,0,0,1.277,2.28,4.727,4.727,0,0,0,3.01.912,4.727,4.727,0,0,0,3.01-.912,2.833,2.833,0,0,0,1.277-2.28,2.833,2.833,0,0,0-1.277-2.28ZM41.5,18.606a1.984,1.984,0,1,1,.547-1.368,2.011,2.011,0,0,1-.547,1.368Z" fill="#231f20"/>
      </g>
    </g>
    <g id="그룹_154" data-name="그룹 154" transform="translate(463.648 21.185)">
      <path id="패스_447" data-name="패스 447" d="M30.645,16.753l.673-3.652H32.8l-.225,1.222h1.032l-.249,1.348H32.328l-.45,2.441H22.2l.251-1.36h1.836l.223-1.208h1.483l-.223,1.208ZM27.3,15.96l.276-1.5H23.089l.25-1.359h5.976l-.527,2.859Z" transform="translate(-14.246 -8.406)" fill="#161615"/>
      <path id="패스_448" data-name="패스 448" d="M56.286,5.771l-.25,1.359h4.182l-.461,2.5h1.572l.461-2.5h4.3l.25-1.359ZM57.564,0l-.25,1.36h2.556L56.848,3.453l1.344.74L62.13,1.382l2.9,2.811,1.639-.684L64.432,1.36h2.556L67.239,0Z" transform="translate(-35.955)" fill="#161615"/>
      <path id="패스_449" data-name="패스 449" d="M93.426,21.507H91.977l.769-4.168h-4.4l.251-1.36h5.852Zm4.064-2.265-.473,2.565H95.534l1.075-5.828h1.483l-.319,1.727H98.8l-.283,1.536Z" transform="translate(-56.683 -10.253)" fill="#161615"/>
      <path id="패스_450" data-name="패스 450" d="M.171,25.479,0,26.06H9.186l.255-.581Z" transform="translate(0 -16.348)" fill="#161615"/>
      <path id="패스_451" data-name="패스 451" d="M126.7,20.8l-.14.58h-10l.255-.58Z" transform="translate(-74.787 -13.344)" fill="#161615"/>
      <path id="패스_452" data-name="패스 452" d="M62.12,66.769l-.255.58h-9.2l.171-.58Z" transform="translate(-33.792 -42.841)" fill="#161615"/>
      <path id="패스_453" data-name="패스 453" d="M44.636,66.769l-.255.58H41.57l.171-.58Z" transform="translate(-26.673 -42.841)" fill="#161615"/>
      <path id="패스_454" data-name="패스 454" d="M103.429,44.528h4.078l-.251,1.359h-5.561l1.017-5.516h5.561l-.251,1.36h-4.078Zm8.181-.894-.462,2.506h-1.483l1.064-5.769h1.483l-.351,1.9h1.031l-.251,1.36Z" transform="translate(-65.251 -25.904)" fill="#161615"/>
      <g id="그룹_153" data-name="그룹 153" transform="translate(0 0)">
        <g id="그룹_152" data-name="그룹 152" clip-path="url(#clip-path-2)">
          <path id="패스_455" data-name="패스 455" d="M138.421,54.123a1.5,1.5,0,0,1-1.409,1.19.963.963,0,0,1-.97-1.19,1.5,1.5,0,0,1,1.409-1.19.963.963,0,0,1,.97,1.19" transform="translate(-87.276 -33.964)" fill="#161615"/>
          <path id="패스_456" data-name="패스 456" d="M139.531,41.359h-1.447l.985-5.756h1.882Z" transform="translate(-88.599 -22.845)" fill="#161615"/>
          <path id="패스_457" data-name="패스 457" d="M75.246,66.769H77.03l-.691.911-1.212-.365Z" transform="translate(-48.204 -42.841)" fill="#161615"/>
          <path id="패스_458" data-name="패스 458" d="M86.657,66.769h1.784l-.691.911-1.212-.365Z" transform="translate(-55.526 -42.841)" fill="#161615"/>
          <path id="패스_459" data-name="패스 459" d="M69.449,66.769h1.74L68.783,70.92H67.042Z" transform="translate(-43.017 -42.841)" fill="#161615"/>
          <path id="패스_460" data-name="패스 460" d="M80.958,66.769H82.7L80.353,70.92H78.609Z" transform="translate(-50.438 -42.841)" fill="#161615"/>
          <path id="패스_461" data-name="패스 461" d="M77.683,66.768l-1.538.779.9,3.372H78.68Z" transform="translate(-48.857 -42.841)" fill="#161615"/>
          <path id="패스_462" data-name="패스 462" d="M89.218,66.768l-1.469.779.9,3.373h1.562Z" transform="translate(-56.303 -42.841)" fill="#161615"/>
          <path id="패스_463" data-name="패스 463" d="M86.867,32.182A3.727,3.727,0,0,1,88,31.3a.571.571,0,0,1,.591.231.531.531,0,0,1-.032.681,7.6,7.6,0,0,1-1.131.709c-.121.043-.642-.578-.559-.738" transform="translate(-55.731 -20.073)" fill="#316e25"/>
          <path id="패스_464" data-name="패스 464" d="M88.858,36a3.581,3.581,0,0,1,1.517-.058.5.5,0,0,1-.1.967c-.36.023-.818.009-1.255.023-.093,0-.162-.932-.162-.932" transform="translate(-57.015 -23.024)" fill="#fea300"/>
          <path id="패스_465" data-name="패스 465" d="M84.085,29.891a3.592,3.592,0,0,1,.528-1.424.5.5,0,0,1,.855.464c-.117.341-.306.759-.459,1.168-.033.087-.924-.207-.924-.207" transform="translate(-53.952 -18.16)" fill="#002f71"/>
          <path id="패스_466" data-name="패스 466" d="M74.494,34.743a4.625,4.625,0,1,1-4.625-4.625,4.626,4.626,0,0,1,4.625,4.625" transform="translate(-41.862 -19.325)" fill="#cf0015"/>
          <path id="패스_467" data-name="패스 467" d="M77.356,34.465c-.423,1.262-1.914,1.5-3.405,1s-2.418-1.551-2-2.813a2.65,2.65,0,0,1,3.475-1.336,2.6,2.6,0,0,1,1.925,3.144" transform="translate(-46.104 -19.981)" fill="#fff"/>
          <path id="패스_468" data-name="패스 468" d="M78.968,32.992a.206.206,0,1,1-.13-.261.206.206,0,0,1,.13.261" transform="translate(-50.411 -20.995)" fill="#161615"/>
          <path id="패스_469" data-name="패스 469" d="M82.917,34.314a.206.206,0,1,1-.13-.261.206.206,0,0,1,.13.261" transform="translate(-52.945 -21.843)" fill="#161615"/>
          <path id="패스_470" data-name="패스 470" d="M80.821,34.1a.117.117,0,1,1-.074-.148.118.118,0,0,1,.074.148" transform="translate(-51.711 -21.779)" fill="#d31c1f"/>
          <path id="패스_471" data-name="패스 471" d="M76.978,33.315a.334.334,0,1,1-.163-.444.334.334,0,0,1,.163.444" transform="translate(-48.983 -21.072)" fill="#f6c3c9"/>
          <path id="패스_472" data-name="패스 472" d="M83.758,35.863a.334.334,0,1,1-.162-.444.334.334,0,0,1,.162.444" transform="translate(-53.333 -22.706)" fill="#f6c3c9"/>
          <path id="패스_473" data-name="패스 473" d="M79.1,34.339a4.688,4.688,0,0,0,1.076.387.609.609,0,0,1-.857.475.55.55,0,0,1-.219-.862" transform="translate(-50.671 -22.033)" fill="#161615"/>
          <path id="패스_474" data-name="패스 474" d="M46.369,31.3a3.52,3.52,0,0,1-.238-1.479.49.49,0,0,1,.958-.017c.065.349.107.8.173,1.225.014.09-.893.27-.893.27" transform="translate(-29.586 -18.879)" fill="#cf0015"/>
          <path id="패스_475" data-name="패스 475" d="M49.575,31.117a3.678,3.678,0,0,1,.612-1.276.563.563,0,0,1,.623-.055.523.523,0,0,1,.271.616,7.469,7.469,0,0,1-.688,1.122c-.089.091-.821-.229-.818-.407" transform="translate(-31.809 -19.068)" fill="#316e25"/>
          <path id="패스_476" data-name="패스 476" d="M51.831,34.041a3.535,3.535,0,0,1,1.424-.464.49.49,0,0,1,.165.945c-.335.118-.774.229-1.184.359-.087.028-.4-.841-.4-.841" transform="translate(-33.257 -21.543)" fill="#fea300"/>
          <path id="패스_477" data-name="패스 477" d="M40.758,36.994a4.625,4.625,0,1,1-4.625-4.625,4.626,4.626,0,0,1,4.625,4.625" transform="translate(-20.216 -20.769)" fill="#002f72"/>
          <path id="패스_478" data-name="패스 478" d="M42.433,35.681c-.059,1.311-1.408,1.944-2.957,1.875s-2.712-.816-2.653-2.127a2.614,2.614,0,0,1,2.934-2.208,2.569,2.569,0,0,1,2.677,2.461" transform="translate(-23.625 -21.314)" fill="#fff"/>
          <path id="패스_479" data-name="패스 479" d="M43.125,34.876a.2.2,0,1,1-.178-.226.2.2,0,0,1,.178.226" transform="translate(-27.411 -22.232)" fill="#161615"/>
          <path id="패스_480" data-name="패스 480" d="M43.667,36.217a4.527,4.527,0,0,0,1.091.154.587.587,0,0,1-.716.617.53.53,0,0,1-.376-.771" transform="translate(-27.981 -23.238)" fill="#161615"/>
          <path id="패스_481" data-name="패스 481" d="M45.108,35.606a.116.116,0,1,1-.1-.129.116.116,0,0,1,.1.129" transform="translate(-28.795 -22.763)" fill="#d31c1f"/>
          <path id="패스_482" data-name="패스 482" d="M41.31,35.538a.33.33,0,1,1-.246-.4.33.33,0,0,1,.246.4" transform="translate(-26.089 -22.543)" fill="#f6c3c9"/>
          <path id="패스_483" data-name="패스 483" d="M48.368,36.636a.33.33,0,1,1-.246-.4.33.33,0,0,1,.246.4" transform="translate(-30.618 -23.247)" fill="#f6c3c9"/>
          <path id="패스_484" data-name="패스 484" d="M47.025,35.656h0a.053.053,0,0,1-.05-.056.1.1,0,0,0-.071-.114.212.212,0,0,0-.229.089.053.053,0,1,1-.087-.059.317.317,0,0,1,.35-.13.207.207,0,0,1,.142.22.053.053,0,0,1-.053.05" transform="translate(-29.885 -22.697)" fill="#161615"/>
          <path id="패스_485" data-name="패스 485" d="M78.2,51.54l.218-1.179H76.987l-.65,3.523H72.948l.18-1a4.743,4.743,0,0,1-1.467.2l-.143.8H68.433L68.191,55.2h9.335l.434-2.355h1l.24-1.3Z" transform="translate(-43.754 -32.314)" fill="#161615"/>
        </g>
      </g>
    </g>
    <g id="그룹_156" data-name="그룹 156" transform="translate(503.769 43.627)">
      <g id="그룹_155" data-name="그룹 155" transform="translate(0 0)" clip-path="url(#clip-path-3)">
        <path id="패스_486" data-name="패스 486" d="M38.2,2.535h1.1V1.56h.535v.975H41.5v.44H38.2ZM38.5.276h2.718V2.013h-.541V.723H38.5Zm1.73,5.216a1.142,1.142,0,0,1-.478-.421,1.12,1.12,0,0,1-.17-.61,1.118,1.118,0,0,1,.648-1.038,1.689,1.689,0,0,1,1.4,0,1.165,1.165,0,0,1,.481.421,1.173,1.173,0,0,1,0,1.227,1.165,1.165,0,0,1-.481.421,1.689,1.689,0,0,1-1.4,0m.107-.51a.856.856,0,0,0,.591.2.87.87,0,0,0,.595-.2.662.662,0,0,0,.23-.522.669.669,0,0,0-.23-.529.867.867,0,0,0-.595-.2.854.854,0,0,0-.591.2.673.673,0,0,0-.227.529.666.666,0,0,0,.227.522M41.972.012h.548V1.5h.774v.453h-.774V3.277h-.548Z" transform="translate(-19.082 -0.006)" fill="#161615"/>
        <path id="패스_487" data-name="패스 487" d="M53.915,3.4v.446h-2.24v1.95h-.541V3.843H48.913V3.4ZM50.75,1.6a1.16,1.16,0,0,0,.305-.255.4.4,0,0,0,.072-.236V.943h-1.6V.49h3.756V.943h-1.6v.17a.4.4,0,0,0,.073.236,1.147,1.147,0,0,0,.3.255l1.422.931-.264.4L51.8,2.006a1.591,1.591,0,0,1-.39-.339,1.688,1.688,0,0,1-.4.339l-1.422.931-.264-.4Z" transform="translate(-24.432 -0.245)" fill="#161615"/>
        <path id="패스_488" data-name="패스 488" d="M63.184.264h.541v.755h1.422V.264h.541v2.5h-2.5Zm1.963,1.2H63.725v.874h1.422ZM64.386,3.85a1.146,1.146,0,0,1,.478-.421,1.688,1.688,0,0,1,1.4,0,1.167,1.167,0,0,1,.481.421,1.173,1.173,0,0,1,0,1.227,1.171,1.171,0,0,1-.481.422,1.693,1.693,0,0,1-1.4,0,1.15,1.15,0,0,1-.478-.422,1.124,1.124,0,0,1-.17-.61,1.136,1.136,0,0,1,.17-.617m.585,1.139a.858.858,0,0,0,.592.2.87.87,0,0,0,.595-.2.662.662,0,0,0,.23-.522.669.669,0,0,0-.23-.529.87.87,0,0,0-.595-.2.858.858,0,0,0-.592.2.672.672,0,0,0-.226.529.665.665,0,0,0,.226.522M67.2.025V1.4H68v.453h-.8V3.322h-.548V.025Z" transform="translate(-31.56 -0.012)" fill="#161615"/>
        <path id="패스_489" data-name="패스 489" d="M78.331,2.939v.44H76.141v1.1h-.554v-1.1H73.316v-.44ZM74.077.428h3.486V2.385H74.077Zm.013,3.5h.548V5.2h3.008v.44H74.09ZM77.028.862H74.606V1.951h2.422Z" transform="translate(-36.621 -0.214)" fill="#161615"/>
        <path id="패스_490" data-name="패스 490" d="M84.379,3.712h3.492v.453H84.379ZM84.8.931a1.267,1.267,0,0,1,.5-.49,1.471,1.471,0,0,1,.727-.177,1.534,1.534,0,0,1,.745.177,1.277,1.277,0,0,1,.507.49,1.4,1.4,0,0,1,.183.717,1.386,1.386,0,0,1-.183.714,1.287,1.287,0,0,1-.507.487,1.534,1.534,0,0,1-.745.176,1.471,1.471,0,0,1-.727-.176,1.276,1.276,0,0,1-.5-.487,1.409,1.409,0,0,1-.179-.714A1.427,1.427,0,0,1,84.8.931m.579,1.381a.86.86,0,0,0,.645.255.922.922,0,0,0,.673-.252.881.881,0,0,0,.258-.66.914.914,0,0,0-.258-.67.9.9,0,0,0-.673-.261.857.857,0,0,0-.645.258.922.922,0,0,0-.248.667.909.909,0,0,0,.248.664m3.356,3.055h-.548V0h.548Z" transform="translate(-42.147 0)" fill="#161615"/>
        <path id="패스_491" data-name="패스 491" d="M97.173.786h1.051V.107h.529V.786H99.8v.44h-2.63Zm.248,1.268a1.085,1.085,0,0,1,.434-.434,1.373,1.373,0,0,1,1.264,0,1.085,1.085,0,0,1,.434.434,1.3,1.3,0,0,1,.154.639,1.3,1.3,0,0,1-.154.639,1.082,1.082,0,0,1-.434.434,1.369,1.369,0,0,1-1.264,0,1.082,1.082,0,0,1-.434-.434,1.3,1.3,0,0,1-.154-.639,1.3,1.3,0,0,1,.154-.639m.545,1.193a.745.745,0,0,0,1.045,0,.776.776,0,0,0,.2-.554.772.772,0,0,0-.2-.557.753.753,0,0,0-1.045,0,.769.769,0,0,0-.2.557.774.774,0,0,0,.2.554M101.892.012V5.36h-.516V2.793H100.7V5.1h-.516V.144h.516v2.2h.673V.012Z" transform="translate(-48.537 -0.006)" fill="#161615"/>
        <path id="패스_492" data-name="패스 492" d="M10.186,5.916A2.512,2.512,0,1,1,12.7,3.4a2.515,2.515,0,0,1-2.512,2.512m0-4.518A2.006,2.006,0,1,0,12.192,3.4,2.008,2.008,0,0,0,10.186,1.4" transform="translate(-3.833 -0.445)" fill="#161615"/>
        <path id="패스_493" data-name="패스 493" d="M29.23,7.286A1.789,1.789,0,0,1,27.7,6.421l.434-.26a1.273,1.273,0,1,0-.181-.654h-.506A1.778,1.778,0,1,1,29.23,7.286" transform="translate(-13.712 -1.862)" fill="#161615"/>
        <path id="패스_494" data-name="패스 494" d="M27.995,3.87h-.506v-3h3.35V1.38H27.995Z" transform="translate(-13.73 -0.437)" fill="#161615"/>
        <path id="패스_495" data-name="패스 495" d="M3.042,2.9l.031-.043A1.633,1.633,0,1,0,.923,3.5l.323-.387L1.252,3.1a1.125,1.125,0,1,1,1.394-.514L0,5.542H3.169V5.037H1.131Z" transform="translate(0 -0.206)" fill="#161615"/>
        <path id="패스_496" data-name="패스 496" d="M21.983,2.9l.031-.043a1.633,1.633,0,1,0-2.158.637l.333-.4a1.126,1.126,0,1,1,1.4-.511L18.941,5.542H22.11V5.037H20.072Z" transform="translate(-9.461 -0.206)" fill="#161615"/>
      </g>
    </g>
  </g>
</svg>
