<?xml version="1.0" encoding="UTF-8"?><svg id="_레이어_1" xmlns="http://www.w3.org/2000/svg" viewBox="0 0 220 34"><defs><style>.cls-1{fill:#009356;}.cls-1,.cls-2,.cls-3,.cls-4,.cls-5{stroke-width:0px;}.cls-2{fill:#ffd500;}.cls-4{fill:#006fb9;}.cls-5{fill:#f37520;}</style></defs><path class="cls-5" d="m21.42,8.72c0-2.37-1.92-4.29-4.29-4.29s-4.29,1.92-4.29,4.29,1.92,4.29,4.29,4.29,4.29-1.92,4.29-4.29Z"/><path class="cls-4" d="m25.86,25.33s-4.01.36-9.06-2.99c-2.97-1.97-3.96-2.56-4.58-2.9-.87-.48-2.11-.94-3.53-.87-2.15.11-3.9,1.74-3.9,3.89s1.74,3.9,3.9,3.9c1.91,0,3.49-1.37,3.82-3.18l.03-.11c.01-.06.08-.23.26-.22.19,0,.45.29,1.13.81h0l.68.54c5.5,4.59,9.94,5.13,10.82,5.25.47.06,4.32.6,8.28-1.1v-6.7c-1.14,1.6-4.51,3.55-7.84,3.68Z"/><path class="cls-1" d="m29.69,13.9c-.02-.1-.1-.18-.21-.2-.08,0-.16,0-.24,0-2.15-.03-4.41-.03-6.05,1.61-1.13,1.13-1.75,2.57-1.87,4.04h0c0,.11.06.19.15.23h0c.57.25,1.34.47,2.15.35.93-.15,1.92-.68,2.6-1.68.04-.04.16-.16.32-.09.13.06.16.18.13.32-.03.1-.08.2-.13.27-.81,1.21-1.64,1.82-2.8,2-.21.03-.41.05-.61.05-.99,0-1.86-.36-2.43-.67-1.25-.55-3.39-2.2-3.39-2.2-3.94-3.19-7.29-3.74-7.4-3.76-3.8-.75-6.79.03-9.25,1.54v2.44c2.24-1.93,5.17-3.06,9.03-2.43,0,0,3.1.35,6.86,3.19,3.27,2.54,5.19,2.97,5.19,2.97,2.19.62,4.56.07,6.29-1.65,1.64-1.64,1.72-3.94,1.69-6.05,0-.09,0-.17-.01-.25Z"/><path class="cls-2" d="m8.68,18.57c1.42-.07,2.66.39,3.53.87.62.34,1.61.93,4.58,2.9,5.05,3.35,9.06,2.99,9.06,2.99,3.33-.13,6.7-2.07,7.84-3.68V.32H.64v15.38c2.46-1.51,5.45-2.29,9.25-1.54.11.02,3.46.58,7.4,3.76,0,0,2.14,1.65,3.39,2.2.57.31,1.44.67,2.43.67.2,0,.4-.02.61-.05,1.17-.18,1.99-.79,2.8-2,.05-.07.1-.17.13-.27.03-.14,0-.26-.13-.32-.16-.07-.29.05-.32.09-.68,1-1.67,1.54-2.6,1.68-.81.13-1.57-.09-2.15-.34h0c-.09-.04-.15-.13-.15-.23h0c.12-1.48.74-2.92,1.87-4.05,1.65-1.65,3.9-1.64,6.05-1.61.08,0,.16,0,.24,0,.1.02.18.1.21.2,0,.08.01.17.01.25.03,2.11-.04,4.41-1.69,6.05-1.72,1.72-4.1,2.27-6.29,1.65,0,0-1.93-.43-5.19-2.97-3.76-2.84-6.86-3.19-6.86-3.19-3.85-.63-6.78.5-9.03,2.43v15.56h33.06v-5.32c-3.95,1.69-7.81,1.16-8.28,1.1-.88-.11-5.31-.66-10.82-5.25l-.68-.54c-.68-.52-.94-.8-1.13-.81-.18,0-.25.16-.26.22l-.03.11c-.33,1.81-1.92,3.18-3.82,3.18-2.15,0-3.9-1.74-3.9-3.9s1.75-3.79,3.9-3.89Zm8.45-5.57c-2.36,0-4.29-1.92-4.29-4.29s1.92-4.29,4.29-4.29,4.29,1.92,4.29,4.29-1.92,4.29-4.29,4.29Z"/><path class="cls-3" d="m41.67,18.63c.93-.62,1.8-1.3,2.6-2.05s1.53-1.51,2.18-2.32c.65-.8,1.22-1.61,1.69-2.44.47-.82.84-1.64,1.1-2.44h-6.32v-2.6h9.21c.44,0,.78.12,1.02.37.24.24.3.6.18,1.08-.2.87-.49,1.72-.89,2.57-.4.85-.89,1.69-1.46,2.52l4.51,3.63c.13.11.22.25.27.42.05.16.06.34.04.53s-.08.38-.17.56c-.09.19-.21.35-.36.5-.33.34-.69.56-1.1.65-.41.09-.73,0-.98-.28l-3.72-4.12c-.9,1-1.91,1.92-3.04,2.77s-2.34,1.6-3.65,2.25c-.23.12-.45.15-.67.1s-.4-.15-.53-.29c-.18-.2-.27-.44-.27-.72s.12-.52.37-.7Zm19.3,9.53h-12.56c-1.53,0-2.3-.75-2.3-2.25v-5.24h3.26v4.58c0,.21.11.32.32.32h11.29v2.6Zm-.54-6.27h-3.26v-7.91h-3.75v-2.6h3.75v-5.27h3.26v15.77Z"/><path class="cls-3" d="m65.45,13.46h7.08v-3.38h-7.08v-2.6h10.31v8.52h-7.03v3.99c0,.21.11.32.34.32,1.31-.03,2.63-.12,3.98-.26,1.35-.14,2.67-.28,3.98-.43.36-.03.63.03.82.2.19.16.3.38.33.64.08.59-.16.96-.71,1.13-.62.18-1.31.35-2.08.53-.77.17-1.57.33-2.4.48-.83.15-1.68.27-2.55.38-.87.11-1.71.18-2.52.23-.82.05-1.43-.12-1.85-.5-.42-.38-.62-.95-.62-1.7v-7.54Zm16.78-7.35v7.42h3.31v2.65h-3.31v11.66h-3.26V6.11h3.26Z"/><path class="cls-3" d="m91.73,13.95c0,.15.04.27.12.37.08.1.21.15.39.15.46,0,1-.02,1.63-.05.63-.03,1.29-.08,1.97-.15.69-.06,1.37-.13,2.06-.21.69-.07,1.31-.15,1.86-.23.36-.05.62,0,.8.17s.27.38.31.66c.03.26,0,.5-.1.72-.1.22-.31.37-.64.45-1.31.36-2.77.67-4.38.93-1.62.26-3.27.45-4.95.56-.73.05-1.31-.11-1.71-.47-.41-.36-.61-.94-.61-1.74V6.8h3.26v7.15Zm1.62,14.33c-1.53,0-2.3-.75-2.3-2.25v-6.61h13.96v8.87h-11.66Zm8.4-2.6v-3.67h-7.45v3.33c0,.23.11.34.34.34h7.1Zm3.26-15.36h3.16v2.6h-3.16v5.39h-3.26V6.11h3.26v4.21Z"/><path class="cls-3" d="m112.33,7.51h15.04v2.65h-11.78v4.7c0,.38.18.56.54.56h11.46v2.6h-5.98v4.11h8.69v2.65h-20.77v-2.65h8.79v-4.11h-3.6c-.78,0-1.38-.19-1.79-.57-.41-.38-.61-.95-.61-1.7V7.51Z"/><path class="cls-3" d="m140.84,16.01c-.98.9-2.06,1.7-3.25,2.4-1.18.7-2.41,1.26-3.66,1.67-.26.08-.49.05-.7-.09-.2-.14-.36-.32-.45-.54-.1-.22-.13-.45-.09-.69.04-.24.18-.41.43-.53.86-.42,1.67-.9,2.43-1.43.75-.53,1.43-1.08,2.03-1.65s1.12-1.15,1.56-1.73c.43-.59.77-1.15,1.02-1.71h-6.03v-2.6h9.21c.47,0,.82.15,1.03.45.21.3.25.67.12,1.09-.34,1.16-.98,2.32-1.91,3.48l3.58,1.71c.33.15.51.41.54.8.03.38-.07.76-.29,1.14-.23.42-.53.72-.89.88-.37.16-.71.13-1.04-.1l-3.63-2.57Zm1.96-7.94h-6.64v-2.43h6.64v2.43Zm-3.6,16.12c0-.75.14-1.42.43-2.01.29-.59.69-1.09,1.2-1.49s1.14-.71,1.86-.92c.73-.2,1.54-.31,2.44-.31s1.71.1,2.44.31c.73.2,1.35.51,1.86.92s.91.91,1.19,1.49c.28.59.42,1.26.42,2.01s-.14,1.44-.42,2.03c-.28.59-.67,1.09-1.19,1.49s-1.14.71-1.86.92c-.73.2-1.54.31-2.44.31s-1.71-.1-2.44-.31c-.73-.2-1.35-.51-1.86-.92s-.91-.91-1.2-1.49c-.29-.59-.43-1.27-.43-2.03Zm3.31,0c0,.75.24,1.3.71,1.64s1.11.51,1.91.51,1.44-.17,1.92-.51c.48-.34.72-.89.72-1.64s-.24-1.29-.72-1.63c-.48-.33-1.12-.5-1.92-.5s-1.44.17-1.91.5-.71.88-.71,1.63Zm9.04-4.97h-3.26v-4.36h-3.5v-2.6h3.5v-6.15h3.26v13.1Z"/><path class="cls-3" d="m160.46,15.89c0,.23.12.34.37.34.57,0,1.18,0,1.84-.02.65-.02,1.31-.04,1.96-.09.65-.04,1.29-.09,1.9-.13.61-.05,1.18-.11,1.7-.17.29-.03.53.04.71.21s.29.38.34.61c.05.24.02.47-.1.71s-.32.39-.61.45c-1.27.33-2.68.6-4.21.82-1.53.22-3.12.39-4.75.5-.74.05-1.32-.13-1.76-.54s-.66-1.01-.66-1.81V6.75h3.28v9.14Zm14.28,12.27h-12.44c-1.53,0-2.3-.75-2.3-2.25v-5.09h3.28v4.41c0,.23.11.34.34.34h11.12v2.6Zm-3.8-15.92v-1.71h-5.76v-2.47h5.76v-1.93h3.26v15.68h-3.26v-7.08h-5.76v-2.47h5.76Z"/><path class="cls-3" d="m178.17,18.58c1.6-1.67,2.78-3.42,3.53-5.28.75-1.85,1.13-3.67,1.13-5.45v-1.27h3.33v1.32c0,.85-.09,1.7-.27,2.55-.18.85-.43,1.69-.76,2.52l3.92,4.19c.23.26.29.58.17.96-.11.38-.36.7-.73.98-.15.11-.32.22-.53.31-.2.09-.4.15-.6.17s-.39,0-.58-.06c-.19-.06-.34-.19-.45-.37l-2.45-3.75c-.54.85-1.16,1.66-1.86,2.43-.7.77-1.49,1.48-2.35,2.13-.23.16-.46.25-.69.26-.23,0-.43-.04-.61-.16-.23-.15-.38-.37-.44-.66-.07-.29.02-.56.24-.81Zm19.96,9.58h-12.93c-1.54,0-2.3-.75-2.3-2.25v-5.46h3.28v4.77c0,.23.11.34.34.34h11.61v2.6Zm-4.85-21.92v15.48h-3.09v-8.33h-3.26v-2.6h3.26v-4.56h3.09Zm4.43-.12v15.85h-3.09V6.11h3.09Z"/><path class="cls-3" d="m206.04,16.16v3.55c0,.25.12.37.37.37.51-.02,1.06-.04,1.67-.09.6-.04,1.22-.09,1.85-.15s1.25-.12,1.87-.18c.62-.06,1.2-.13,1.74-.2.33-.03.59.03.8.2.2.16.33.37.38.61.05.26.01.52-.11.77-.12.25-.35.43-.67.53-1.29.34-2.69.63-4.2.87-1.51.24-3.01.41-4.49.53-.78.06-1.39-.11-1.82-.54s-.65-1.01-.65-1.76V7.41h10.19v2.6h-6.91v3.6h5.63v2.55h-5.63Zm13.96,11.68h-3.26v-11.66h-3.63v-2.6h3.63v-7.47h3.26v21.72Z"/></svg>