<svg width="40" height="40" viewBox="0 0 40 40" fill="none" xmlns="http://www.w3.org/2000/svg">
<path d="M20 40C31.045 40 40 31.045 40 20C40 8.955 31.045 0 20 0C8.955 0 0 8.955 0 20C0 31.045 8.955 40 20 40Z" fill="#1877F2"/>
<path d="M14 16.2259H16.5741V13.7264C16.5741 12.6259 16.599 10.9223 17.401 9.8715C18.2466 8.75855 19.4031 8 21.3928 8C24.6383 8 26 8.4601 26 8.4601L25.3596 12.2715C25.3596 12.2715 24.2902 11.9606 23.2891 11.9606C22.2881 11.9606 21.3928 12.3212 21.3928 13.3161V16.2197H25.4902L25.2041 19.9378H21.3928V32.8642H16.5741V19.9378H14V16.2197V16.2259Z" fill="white"/>
</svg>
