<svg width="40" height="40" viewBox="0 0 40 40" fill="none" xmlns="http://www.w3.org/2000/svg">
<circle cx="20" cy="20" r="20" fill="#00C73C"/>
<g clip-path="url(#clip0_960_72492)">
<path d="M21 12.4791C20.1489 12.4791 19.3244 12.5885 18.5378 12.7937V10.8488C18.5378 10.8055 18.5333 10.7599 18.5244 10.7166C18.3667 8.58011 16.7467 7 14.7689 7C12.7911 7 11.1711 8.58011 11.0133 10.7166C11.0044 10.7599 11 18.0175 11 18.0175V22.7395C11 22.7737 11 22.8057 11 22.8376C11.0511 28.458 15.5089 33 21 33C26.4911 33 31 28.4056 31 22.7395C31 17.0735 26.5222 12.4791 21 12.4791ZM21 31.4244C16.3244 31.4244 12.5356 27.5346 12.5356 22.7395V10.9241C12.5356 9.6472 13.5356 8.61203 14.7689 8.61203C16.0022 8.61203 17 9.6472 17 10.9241L16.9956 22.6369C16.9956 24.9079 18.7844 26.8528 21 26.8528C23.2156 26.8528 25.0089 25.0105 25.0089 22.7395C25.0089 20.4686 23.2156 18.6262 21 18.6262C20.0711 18.6262 19.2156 18.9523 18.5378 19.495V17.7347C19.2778 17.3517 20.1156 17.1328 21 17.1328C24.0178 17.1328 26.4622 19.6432 26.4622 22.7373C26.4622 25.8314 24.0156 28.3418 21 28.3418C17.9844 28.3418 15.5378 25.8314 15.5378 22.7373V10.8488C15.5378 10.4635 15.1933 10.0964 14.7689 10.0964C14.3444 10.0964 14 10.4612 14 10.8488V22.7395C14 22.9197 14.0089 23.0975 14.0222 23.2754C14.2889 26.9919 17.3111 29.9219 21 29.9219C24.6889 29.9219 28 26.7069 28 22.7395C28 18.7722 24.8667 15.5572 21 15.5572C20.1333 15.5572 19.3044 15.7191 18.5378 16.0155V14.4286C19.3178 14.1846 20.1444 14.0546 21 14.0546C25.6733 14.0546 29.4644 17.9422 29.4644 22.7395C29.4644 27.5369 25.6756 31.4244 21 31.4244ZM18.5378 22.7395C18.5378 21.3441 19.64 20.2132 21 20.2132C22.36 20.2132 23.4622 21.3441 23.4622 22.7395C23.4622 24.135 22.36 25.2659 21 25.2659C19.64 25.2659 18.5378 24.135 18.5378 22.7395Z" fill="white"/>
</g>
<defs>
<clipPath id="clip0_960_72492">
<rect width="20" height="26" fill="white" transform="translate(11 7)"/>
</clipPath>
</defs>
</svg>
