<svg width="40" height="40" viewBox="0 0 40 40" fill="none" xmlns="http://www.w3.org/2000/svg">
<circle cx="20" cy="20" r="20" fill="#00C73C"/>
<path d="M31.4979 11.505C30.5653 10.5731 29.2937 10 27.889 10H12.1119C10.7069 10 9.43525 10.5731 8.50271 11.505C7.57224 12.4386 7.00029 13.7124 7 15.1195V22.7298C7.00029 24.1365 7.57224 25.4104 8.50271 26.3443C9.43525 27.2762 10.7069 27.849 12.1119 27.8493H17.942L19.6169 31.2683C19.8277 31.651 20.1726 31.651 20.3837 31.2683L22.0583 27.8493H27.8887C29.2934 27.849 30.5653 27.2765 31.4976 26.3443C32.4281 25.4107 33 24.1368 33 22.7298V15.1195C32.9997 13.7127 32.4278 12.4389 31.4976 11.505H31.4979Z" fill="white"/>
<path d="M10.1035 15.3606H11.6648V17.8944C11.9986 17.4956 12.5226 17.3004 13.0277 17.3004C14.3297 17.3004 15.2319 18.4174 15.2319 19.7231C15.2319 21.0287 14.3226 22.1561 13.0121 22.1561C12.4967 22.1561 11.9645 21.9506 11.681 21.4966H11.6651V22.0028H10.1038V15.3606H10.1035ZM11.6115 19.7319C11.6115 20.31 11.9815 20.7537 12.6162 20.7537C13.2508 20.7537 13.6202 20.31 13.6202 19.7319C13.6202 19.1538 13.2508 18.7016 12.6162 18.7016C11.9815 18.7016 11.6115 19.1706 11.6115 19.7319Z" fill="#00C73C"/>
<path d="M24.3731 19.7322C24.3731 21.2749 23.1371 22.1564 21.723 22.1564C20.3089 22.1564 19.0737 21.2838 19.0737 19.7322C19.0737 18.1807 20.3083 17.3004 21.723 17.3004C23.1377 17.3004 24.3731 18.1777 24.3731 19.7322ZM20.7201 19.7322C20.7201 20.3103 21.0883 20.754 21.7233 20.754C22.3582 20.754 22.7273 20.3103 22.7273 19.7322C22.7273 19.1541 22.3588 18.7019 21.7233 18.7019C21.0877 18.7019 20.7201 19.1709 20.7201 19.7322Z" fill="#00C73C"/>
<path d="M15.7327 15.2058V16.7633C16.3482 16.8597 16.4606 17.4687 16.4606 18.1703V22.0027H18.019V17.8514C18.019 16.181 17.0897 15.2058 15.7327 15.2058Z" fill="#00C73C"/>
<path d="M28.73 17.451V17.9304H28.7127C28.4051 17.4764 27.9314 17.3007 27.4181 17.3007C26.0726 17.3007 25.1636 18.4342 25.1636 19.7667C25.1636 21.0992 26.0455 22.0909 27.333 22.0909C27.9161 22.0909 28.3277 21.8869 28.73 21.47V21.6829C28.73 22.4559 28.4754 22.9886 27.6368 22.9886H27.3315V24.4387H27.6536C29.3329 24.4387 30.291 23.4933 30.291 21.5608V17.451H28.7298H28.73ZM27.7793 20.7151C27.1431 20.7151 26.7734 20.2732 26.7734 19.6948C26.7734 19.1164 27.1431 18.6662 27.7793 18.6662C28.4154 18.6662 28.7819 19.1367 28.7819 19.6948C28.7819 20.2528 28.4121 20.7151 27.7793 20.7151Z" fill="#00C73C"/>
</svg>
