<svg width="20" height="20" viewBox="0 0 20 20" fill="none" xmlns="http://www.w3.org/2000/svg">
<path d="M14.7139 12.3576L13.5354 11.1791L14.7139 10.0006C16.0157 8.69883 16.0157 6.58828 14.7139 5.28653C13.4122 3.98479 11.3016 3.98479 9.99983 5.28653L8.82133 6.46505L7.64282 5.28653L8.82133 4.10803C10.7739 2.1554 13.9397 2.1554 15.8924 4.10803C17.845 6.06065 17.845 9.2265 15.8924 11.1791L14.7139 12.3576ZM12.3568 14.7147L11.1783 15.8932C9.22575 17.8458 6.05991 17.8458 4.10729 15.8932C2.15467 13.9405 2.15467 10.7747 4.10729 8.82208L5.2858 7.64356L6.46431 8.82208L5.2858 10.0006C3.98405 11.3023 3.98405 13.4129 5.2858 14.7147C6.58755 16.0163 8.69808 16.0163 9.99983 14.7147L11.1783 13.5361L12.3568 14.7147ZM12.3568 6.46505L13.5354 7.64356L7.64282 13.5361L6.46431 12.3576L12.3568 6.46505Z" fill="black"/>
</svg>
